<svg xmlns="http://www.w3.org/2000/svg" width="370.482" height="192" viewBox="0 0 370.482 192">
  <path d="M357.156 58.408c.45 3.28-1.44 8.87-2.64 11.04-.55.99-2.08 2.94-3.36 3.12-2.37.33-5.92-2.97-9.36-3.12-5.26-.22-5.318 3.57-6 8.88 1.602.92 3.432.52 5.04 1.2 2.392 1.02 6.4 4.91 7.2 7.68.76 2.66.58 5.95.24 8.4-.81 5.94-6.97 12.26-12.24 14.16-1.17.42-2.53.43-3.6.72-.24 6.32-2.01 10.79-4.8 14.64-3.11 4.29-7.96 8.73-13.92 9.84-.802.15-2.062-.27-2.88 0-2.182.72-3.132 3.762-4.562 5.04-1.17 1.052-3.21 2.11-5.04 2.882-3.67 1.55-9.32 3.2-14.88 2.16-4.52-.84-7.07-3.23-9.36-6.24-1.23-1.63-2.76-3.61-3.36-5.76-.488-1.76.12-3.89-.72-6-.608-1.522-2.818-2.38-3.6-4.32-1.68-4.19.09-8.67-1.44-14.16-4.52.36-5.71-2.61-7.92-4.56-2.83 1.76-1.22 6.14-2.16 9.6-.88 3.26-4.31 6.16-9.36 5.04-3.52-1.6.63-6.71-1.92-9.12-2.17-.04-4.28 1-6.72.96-2.17-.03-4.77-.82-7.2-1.44-4.41-1.12-7.9-1.88-10.08-4.8-2.14 2.72-6.13.72-7.92-1.44-1.11 1.68-1.92 4.3-2.16 6.96-.49 5.47.55 10.6 1.2 15.84.32 2.54 1.16 5.03 1.68 7.44 1.54 7.22 1.28 18.18-3.84 22.32-3.2 2.59-8.94 2.39-10.08-1.92-.59-2.2.06-4.66.48-7.2.24-1.42.42-3.02.72-4.32.65-2.8 2.43-5.06 2.4-8.64-.02-2.63-1.03-5.02-1.68-6.96-.72-2.15-1.27-3.86-2.64-5.76-1.48 1-1.69 2.75-3.12 3.84-1.7 1.29-4.17 2.11-6.72 2.64-1.51 2.59-2.66 4.4-6 5.28-1.67.44-4.14.74-5.28.72-2.67-.04-8.18-1.86-10.32-3.12-.86-.51-1.69-1.5-2.64-2.16-4.76-3.34-8.82-8.86-12.96-12.96-6.35.93-10.7-1.63-14.4-4.08-2.54-3.38-4.37-7.47-5.76-12-3.24 1.27-6.08-.1-7.68-1.92-2.08 1.73-2.32 4.82-2.4 7.92-.15 6.04 1.66 10.22-2.4 13.92-.96.88-3.38 2.32-5.76 2.16-2.65-.18-3.67-2.37-4.8-4.56.62-3.69 1.53-7.14 0-10.32-1.72.13-3.43.25-4.8.72-.85 3.83-2.83 6.7-5.76 9.12-3.23 2.66-8.17 4.95-12 5.28-.71.06-1.36-.24-2.16-.24-2.05.01-5.67.73-8.4.24-1.46-.26-3.2-1.44-5.04-2.4-3.3-1.72-6.36-3.25-7.68-6.72-3.57 1.98-10.28 3.27-12.24-.96-.84-1.8.15-4.18-1.92-5.28-3.42 1.56-2.67 6.94-2.88 11.76-.19 4.43-.34 9.12-.72 13.2-.39 4.14-.72 6.34-1.92 8.88-1.6 3.4-3.43 6.17-7.2 7.44-11.67.58-6.3-13.43-5.04-21.12.58-3.58 1.14-7.42 1.2-11.04.08-4.44-1.09-8.19-1.44-12-.68-.84-1.18-1.86-1.92-2.64-3.6-.41-7.54-3.09-7.68-6.72-.06-1.44.93-2.71 1.2-4.32-3.19-2.26-5.89-3.47-5.04-9.36.29-2.01 2.76-6.78 3.84-8.16.69-.88 1.89-1.55 2.88-2.4 2.21-1.89 4.13-3.44 7.44-4.08-.55-2.14-1.36-4.14-1.92-6.24-.55-2.04-1.49-4.86-1.2-6.96.38-2.81 4.5-5.07 7.2-6.72 1.478-.9 3.09-1.71 4.56-2.4 3.87-1.83 9.8-3.49 15.6-3.12 5.14.33 9.59 2.35 12 5.76 1.1-.45 1.89-1.46 3.12-2.16 3.96-2.24 10.32-3.86 16.8-3.12 3.35.38 5.69 1.83 8.16 3.12.29-1.77-1.99-2.05-1.44-4.56.17-.76 1.79-1.95 3.12-3.12 2.32-2.04 4.71-3.56 7.92-5.04 1.72-.79 3.87-1.58 4.8-1.68 4.97-.51 8.07 3.07 8.88 6.96 8.87-7.49 32.98-3.73 28.08 11.76 4.91-.89 8.9 1.32 12.48 3.12-.94-5.55-4.6-11.87-4.08-17.52.2-2.22 4.53-4.83 7.2-6.24 3.03-1.6 6.01-2.18 8.88-3.12 1.49-.49 2.8-1.42 4.32-1.92 1.65-.54 3.57-.92 5.52-1.44 3.88-1.03 7.92-1.44 12.96-1.68 4.2-.2 12.43-.3 15.12 3.36.12 6.52-4.47 8.33-6.48 12.72-2.63 1.87-4.76 4.42-6.72 6.96-1.97 2.57-3.97 5.23-5.76 7.92-1.8 2.71-3.25 5.79-5.04 8.64-1.79 2.85-3.79 5.61-4.32 9.12 1.41.02 2.22-1.22 3.36-1.92 2.83-1.75 5.72-3.59 8.88-5.28 3.71-1.98 9.31-2.9 14.4-4.32.31-5.4.63-10.54 1.44-15.36.41-2.43 1.48-5.79 2.88-6.96 1.48-1.24 4.65-1.84 7.2-2.64 4.22-1.32 8.02-2.08 13.2-1.44.29-2.67.27-5.65 1.438-7.44 5.05-2 13.85-1.59 19.92-1.44 3.68.09 8.03.18 11.76.96 1.09.23 2.04.79 3.12.96 4.74.74 10.52 1.23 12.72 4.32 1.41 1.98 1.32 5.59.96 8.4 4.62-1.88 10.74-3.02 17.04-1.68.72.15 1.43.78 2.16.96 2.98.74 5.47.51 7.2 2.4 1.3-.47 2.14-1.3 3.36-2.16 1.03-.72 2.31-2.09 3.6-1.92 4.17.55.39 8.26.72 10.8.18 1.43 1.44 2.36 1.92 3.36.772 1.6.82 2.82 1.682 3.84 1.77-.4 2.6-1.89 4.32-1.68 3.17.4 2.86 6.21 4.32 8.88 1.147-.16 1.608-1.4 2.397-2.16 1.393-1.32 3.063-2.53 5.28-3.36 2.99-1.12 10.3-1.98 14.4-.24 2.086.878 4.256 3.758 4.566 5.998zm-2.64 4.08c.6-2.56.02-4.07-.96-5.52-1.352-2.02-4.04-3-6.96-3.12-3.21-.14-7.34.54-9.36 1.68-3.22 1.81-4.03 5.08-6.96 6.48-2.94-2.1-2.17-7.91-4.8-10.32-3.87.79-1.6 3.62-.96 6 .93 3.47 1.52 7.84 1.68 11.52.38 8.66-2.08 15.12-5.52 20.88-.682 1.14-1.82 1.88-2.4 3.36 2.67 2.62 13.01 3.64 15.12-.24.01-2.87.06-5.46-.24-7.68-.7-5.19.66-10.62 1.92-15.6.82-.64 1.3-1.68 2.16-2.16 4.11-2.3 10.37.68 13.44 2.16 1.56-.82 2.21-3.49 2.88-5.52.26-.77.83-1.37.96-1.92zm-8.4 32.4c.76-8.12-3.45-13.47-10.32-13.92-.64 4.57.87 10.84-.238 14.64-4.58 4-15.22 3.23-19.68-.24-2.522 1.99-5.552 3.51-8.4 5.04-1.14.61-2.49 1.37-3.6 1.68-3.37.94-6.182 1.01-9.12 1.2-1.57.1-3.19.49-4.562.48-3.38-.03-5.72-.96-8.64-1.44-10.062-1.66-18.85-4.77-25.2-9.36-2.27 1.47-5.64 3.12-8.88 3.12-1.77 0-4.71-.13-6.24-.48-1.55-.36-4.17-2.04-4.56-3.36-.41-1.38.26-4.87.72-7.68.55-3.36 1.06-7.49 1.68-10.32 1.05-4.77 2.39-9.41 3.12-13.92.37-2.27.2-4.49.48-6.48.43-3.07 1.62-6.21.48-9.36-1.06-.46-2.47-.57-4.08-.48v.72c-.48 3.26-.2 7.42-.48 11.04-.45 5.8-1.55 12.18-2.64 18-.83 4.4-1.96 8.86-2.88 12.48-.87 3.45-1.22 5.52-3.12 7.44-2.88 1.26-6.37 2.94-11.04 2.64-.69-.04-1.41-.44-2.16-.48-4.21-.23-7.4.63-9.6-.96-3.08 2.92-6.7 2.06-10.56.72-1.552-.54-3.12-1.62-4.802-2.16-.55-.18-1.42-.06-2.16-.24-1.74-.43-4.03-1.28-6-1.44-5.08-.42-9.27-1.65-13.92-.96-1.4.21-2.41 1.37-4.32.96-1.56 1.56-2.42 5.32-4.8 6.24-1.44.55-7.05.64-8.4.48-.62-.07-1.29-.73-2.16-.96-1.65-.43-2.94-.13-3.6-.72-.99-.89-.9-2.62-.96-3.84-1.4-.06-2.68.8-4.08.96-2.28.27-4.27.06-5.97-.42-1.53-.42-2.82-1.06-3.87-1.74-1.16-.76-1.91-2.06-3.12-2.16-5.83 2.81-10.21 7.07-19.44 6.48-2.78-2.26-3.79-6.29-6-9.12-1.83 2.5-1.16 5.91-4.08 7.92-2 1.38-5.35 1.07-8.64.96-3.8-.12-6.95-.23-8.64-1.92-1.34-1.34-.96-3.38-1.44-5.28-4.2 2.01-9.38 3.69-14.4 2.4-2.528-.65-5.93-2.86-7.438-4.56-3.31-3.73-4.11-9.06-3.36-15.36-3.17 0-1.82 3.26-1.44 4.8 1.16 4.71 1.98 8.12 3.6 12 .82 1.96 2.29 4.52 1.92 6-.19.75-2.32 2.32-3.12 2.64-1.21.49-3.478.5-5.52.958-1.53.34-2.61.96-3.6.96-1.55-.01-3.2-.68-4.08-1.44-.03-.99.42-1.5.24-2.64-3.22-7.21-5.78-16.28-8.16-23.76-.32-1-.29-2.55-1.44-3.12-5.32.38-10.76 5.84-12 10.8-.38 1.51-.15 3.12-.24 4.8.66 1.02 1.36 2.01 2.16 2.88 1.1.42 2.83.21 3.36 1.2-.15 2.49-2.12 4.39-1.44 6.96.3 1.15 1.96 2.5 3.36 3.12.82.36 2.04.18 3.12.72 3.05 1.53 4.01 7.32 4.32 11.52.21 2.842-.03 6.032-.24 8.882-.32 4.4-1.06 9.12-1.92 13.2-.88 4.19-2.69 8.81.24 12.24 1.45.12 2.9.63 4.32.24 2.61-.72 4.96-5.312 5.52-8.16.16-.8.1-1.88.24-2.88 1.17-8.21.93-19.23 2.16-26.16 1.41-1.59 2.08-3.66 4.32-3.6 2.91.068 3.63 3.28 3.84 6.72 2.98 3.2 8.74.41 11.52-.96.68 4.03 3.91 5.49 7.2 7.2 2.54 1.32 3.76 2.42 6.48 2.64 4.75.38 10.2-.2 13.2-1.44 1.36-.56 3.35-2.27 4.32-2.88.63-.39 1.228-.39 1.68-.72 3.14-2.32 3.73-5.98 5.28-9.6 1.398-.562 2.71.27 4.08 0 1.34-.26 1.76-1.6 3.12-1.44 1.8 2.15 2.488 5.75 2.16 9.36-.11 1.2-.91 2.14-.722 3.358.47 2.99 4 3.22 6 1.92 1.47-.95 2.77-3.7 2.88-5.04.08-.97-.42-2.22-.48-3.36-.23-4.12-.36-9.79 1.44-12.478.69-1.03 2.13-2.34 3.84-2.16 1.91.21 2.54 2.54 4.32 2.64 1.4.08 2.01-1.09 3.6-1.09.29 0 .6.04.96.13 2.13 3.51 2.33 8.23 4.56 12 3.272 3.07 9.022 5.34 15.12 4.08 6.37 5.97 13.53 19.12 26.4 18 1.21-.11 3.69-.5 5.04-1.44 1.45-1.01 1.41-2.94 2.88-4.32 4.91.24 6.59-1.42 8.4-4.08.82-1.21 1.32-2.95 2.4-3.12 2.15-.34 4.18 4.3 5.04 6.48.78 1.99 1.68 4.86 1.92 6.72 1.15 8.83-5.32 16.18-2.4 23.52 2.91.82 5.25-.27 6.48-1.92 2.04-2.75 2.83-10.618 2.4-15.118-.17-1.72-.87-2.7-1.2-4.08-1-4.15-.87-8.56-1.44-12.24-.17-1.06-.63-1.93-.72-2.88-.32-3.32-.23-9.72 1.2-13.68.66-1.83 2.16-4.14 3.6-4.08 1.47.07 2.52 3.46 4.56 3.36.89-.04.64-.762 1.44-1.2 3.16-1.74 3.59 1.24 5.28 2.4 1.9 1.31 4.44 1.65 7.2 2.4 2.82.76 5.89 1.68 8.16 1.438 1.43-.15 3.34-1.9 5.04-1.68 1.67.21 2.95 2.49 3.12 4.56.14 1.78-.87 3.51-.48 4.8 2.6 1.22 4.8.11 5.76-1.92 1.34-2.82.12-7.54 1.2-10.08.72-1.69 3.11-2.84 5.04-2.4 2.09.47 2.02 3.11 3.84 4.32 2.42.56 3.57-1.09 5.28-.48-.47 2.97.33 5.64.48 9.12.08 1.83-.19 3.68 0 5.04.5 3.51 3.11 4.69 5.04 6.24-2.06 6.6 2.63 10.45 5.04 14.16 5.03 3.54 12.09 3.57 17.28 1.68.96-.35 2.13-.59 2.88-.96 3.87-1.91 5.58-5.77 8.16-8.16 2.738.11 4.438.12 6.72-.72 4.41-1.63 6.65-4.24 9.12-7.44.67-.87 1.63-1.75 2.16-2.64 2.488-4.19 2.06-8.56 2.64-13.2 1.85-.51 1.73-.97 3.84-.48 1.23-.89 2.5-.698 3.84-1.438 3.152-1.742 8.022-7.642 8.402-11.762zm-29.52-3.6c4.55-6.25 8.13-14.77 6.96-24.24-.102-.81-.562-1.73-.72-2.64-.272-1.52-.12-3.27-.48-4.8-.29-1.2-.96-2.63-1.44-4.08-2.08-6.23-5.31-11.02-9.6-14.64-3.06-2.58-4.85-3.33-9.12-4.32-3.09-.72-6.29-1.39-9.84-.96-2.14.26-4.88 1.04-6.96 1.92-.79.53-1.81-.43-1.92.48-1.34 3.6-1.22 7.66-4.8 8.64-4.182 1.14-9.26-1.98-14.4-.72-1.33 1.46-1.62 3.53-1.92 5.76-.29 2.19-.8 4.56-.96 6.72-.14 1.82.14 3.68 0 5.52-.48 6.34-2.15 12.71-2.64 18.72-.22 2.71.09 5.24-.72 7.68 4.12 3.89 10.74 6.59 17.28 8.4 7.12 1.97 16.75 3.22 24.96 1.68 5.358-1 9.34-4.33 13.438-6.48.212-1.63 1.592-2.09 2.882-2.64zm-.48-49.92c.53-1.63 1.11-3.21.96-5.52-.05-.19-.2-.28-.48-.24-1.12 1.04-2.82 1.5-3.6 2.88.72 1.28 1.87 2.13 3.12 2.88zm-35.52-3.12c.648-2.34 1.6-4.88 1.438-6.72-.54-6.16-9.33-6.01-15.36-7.2-1.77-.35-3.59-1.02-5.28-1.2-4.97-.53-10.63-.25-14.4-.24-3.228.01-7.51.37-9.6 1.2-.26 2.28-1.22 3.98-.72 6 .32 1.3 1.85 2.21 2.4 3.84.85 2.54.35 4.09 0 7.2 2.13.77 5.1.47 6.24 2.16 1.55 2.29.36 7.24 0 9.6-.33 2.2-.11 4.64-.48 6.96-.4 2.48-1.12 5.12-1.68 7.68-.58 2.63-1.13 5.3-1.68 7.92-.57 2.75-.81 5.44-1.2 8.16-.39 2.72-1.41 5.6-.48 8.16 5.16 2.2 11.98 1.91 14.88-.96 1.96-1.94 1.54-8.04 2.16-12.72.24-1.84.71-3.7.96-5.52.31-2.18.24-4.34.48-6.24.13-1.07.63-1.96.72-2.88.11-1.15-.33-2.84-.24-4.08.08-1.04.56-2.58.72-4.08.35-3.17.8-9.87 2.64-11.28 1.45-1.11 5.21-1.19 7.44-.96.62.06 1.02.57 1.68.72 2.3.52 4.852.31 6.96.24 1.132-1.14 1.792-3.55 2.402-5.76zm-44.16 1.92c.32-3.01.75-5.2-.96-7.44-4.72-1.66-9.95-.28-14.16.96-2.06.61-5.44 1.29-6.48 2.64-.78 1.02-1.35 4.12-1.68 6-.78 4.52-1.32 8.9-.72 13.68 4.9.26 5.69 5.32 5.04 10.08-.67 4.93-1.86 9.57-3.36 12.96-.67 1.51-1.37 3.07-1.92 4.56-1.26 3.42-3.18 6.2-3.6 8.64 1.66 1.53 4.43.68 6.96.72 1.18.02 2.44.46 3.6.48 1 .01 2.15-.38 3.36-.48 2.61-.21 4.99-.66 6.24-2.4.54-.75.74-2.69 1.2-4.32 1.29-4.64 3.16-9.57 3.84-14.16.23-1.54.04-3.22.24-4.8.5-3.96 1.57-7.85 1.92-11.76.48-5.38-.01-10.77.48-15.36zm-22.8 32.4c.71-3.57 1.64-9.47.24-12.96-3.66-1.47-6.5-.33-9.36.48-1.39.39-3.03.55-4.32.96-5.38 1.71-9.22 4.71-13.44 7.68-1.95 1.37-5.15 3.52-7.2.72 2.62-9.86 8.24-16.87 13.2-24.24 1.3-1.92 2.42-3.78 3.84-5.52 2.82-3.46 5.98-6.51 8.64-10.08 1.33-1.79 3.12-3.77 3.12-6.24-1.44-1.28-3.96-1.75-6.24-1.92-10.38-.78-19 1.2-27.12 4.32-5.74 2.21-11.68 3.47-15.12 7.44.21 6.91 2.392 11.85 4.32 17.04 1.95.21 4.81-.49 6 .48-.12 3.72-1.31 6.37-2.16 9.36 3.64 7.56 2.57 20.25-.478 27.6 3.87 1.07 7.4.1 10.8.72 1.09.2 2.02.83 3.12.96 1.09.13 2.19-.14 3.36 0 4.03.48 7.11 1.94 10.32 3.12 2.29.84 5.31 2.16 6.96 1.92 2.98-.44 5.64-7.47 6.72-9.84.83-1.82 1.54-3.89 2.4-6 .898-2.2 2.028-4.11 2.398-6zm-54 22.8c4.98-5.47 8.81-15.47 8.16-24.96-.46-6.61-2.76-13.75-7.44-17.04-.4-.28-1.27-.6-1.92-.96-1.74-.95-4.05-2.16-6.24-2.4-3.59-.4-4.59.86-6.72 1.68-.78.3-1.87.61-2.88.96-.99.35-2.23.98-2.88.96-1.63-.04-3.74-2.04-6-1.92-1.82.1-2.66 1.04-4.32 2.16-.02 2.95 1.21 5.73 3.84 6.72 2.92-1.89 8.74-.83 9.84 2.16.53 1.42.59 5.19-1.2 5.52-1.01.18-2.37-1.46-3.84-2.16-3.1-1.48-5.35-.53-7.68.48-1.22.53-2.42.85-3.6 1.92-1.32 2.9-.75 4.63.24 7.44.49 1.4.77 2.82 1.2 4.08.9 2.66 3.22 4.54 2.64 8.16 1.81.99 3.26 2.91 5.52 3.36 4.15.82 7.58-1.82 11.04-1.44 1.22 1.48.28 2.24.72 4.32 3.36 1.74 7.7 1.49 11.52.96zm7.2-39.12c.2-1 .62-1.78.48-3.12-1.17-.03-2.53.13-3.36-.24.88 1.2 1.6 2.56 2.88 3.36zm-21.12-7.44c1.13-2.57 1.66-5.52.72-8.16-.53-1.49-2.48-2.57-3.84-3.36-4.3-2.51-13.47-4.25-18.48-1.44-1.43.8-3.32 4.16-4.8 3.84-1.71-.37-.68-2.1-.96-3.84-.46-2.84-3.2-4.93-6.24-4.56-5.15.63-11.09 5.06-13.44 7.68.54 2.5 1.95 4.13 2.16 6.96 6.272 6.81 6.61 20.67 4.802 30.96-.27 1.51-.45 3.13-.72 4.32-.2.88-1.02 1.61-.96 2.4.06.79.86 1.42 1.44 2.4 1.58 2.65 2.8 5.94 4.56 7.68 6.81.36 11.31-2.77 15.36-5.28 1.108-.69 2.76-1.44 2.88-2.4.07-.53-1.09-2.27-1.44-3.12-.59-1.4-.97-3.42-1.68-5.52-.64-1.9-1.58-3.63-1.92-5.52-.5-2.81.17-6.8-.72-8.88.67-2.49.64-4.81 1.68-6.96 1.26-2.6 5.7-6.33 8.88-6.72 3.37-.42 4.52 1.43 6.96 1.44 1.978.01 3.928-1.73 5.758-1.92zm-5.04 15.6c-.04-2.01-3.39-2.54-4.8-1.68 1.98.19 3.14 1.18 4.8 1.68zm-8.88-1.2c-1.72-1.72-3.7-3.18-4.56-5.76-.31-.01-.33-.31-.72-.24-1.39 1.94-1.37 5.56-.96 8.64 2.1-.86 3.92-2 6.24-2.64zm-28.32 11.76c1.58-9.71.21-24.5-5.76-28.56-2.41-.54-4.55-3.17-8.4-3.6-7.36-.82-17.76 1.85-18.72 5.76-.42 1.7 1.22 3.63 1.2 6 4.92-2.58 9.56 2.85 7.2 7.44-4.5-.18-7.14 1.5-10.8 2.16-2.29 3.07-6.07 4.65-10.08 6-1.97 4.1-.89 8.54.48 11.52 1.31 2.84 1.738 3.21 3.84 4.56.62.4 1.14 1.18 1.68 1.44 4.63 2.22 10.67.73 13.92-1.2 1.43-.85 2.44-2.03 3.84-2.64 2.7 1.46-.11 6.02 1.68 8.64 2.71.85 7.41 1.52 10.8 1.2 4.77-.46 5.26-4.97 6.72-9.6.99-3.13 1.96-6.39 2.4-9.12zm-26.4-15.84c-.53-3.22-4.22-2.75-6-.96-.03.69.13 1.57-.24 1.92 2.04.5 4.16-.73 6.24-.96zm-8.64.24c.48-1.19.79-4.79.72-6-.04-.63-.52-1.29-.72-2.16-.21-.91 0-2.21-.24-2.88-.28-.78-1.38-1.9-2.16-2.64-1.85-1.77-4.48-3.07-7.44-3.36-10.43-1.02-21.3 4.4-26.16 9.84.43 4.99 2.49 9.45 3.84 13.92.41 1.34.31 2.79.72 4.08.37 1.17 1.07 2.16 1.44 3.36 2.34 7.51 4.63 14.74 7.2 22.08 4.08.58 8.04-.87 10.8-2.4-2.68-6.68-5.07-13.65-6.48-21.6.75-2.24 3.22-2.46 5.28-3.12 2.16-.69 4.3-1.92 6.48-2.16 2.1-1.45 3.27-2.33 4.8-4.32.67-.87 1.62-1.89 1.92-2.64z"/>
  <path fill="#EF5615" d="M353.556 56.968c.98 1.45 1.56 2.96.96 5.52-.13.55-.7 1.15-.96 1.92-.67 2.03-1.32 4.7-2.88 5.52-3.07-1.48-9.33-4.46-13.44-2.16-.86.48-1.34 1.52-2.16 2.16-1.26 4.98-2.62 10.41-1.92 15.6.3 2.22.25 4.81.24 7.68-2.11 3.88-12.45 2.86-15.12.24.58-1.48 1.72-2.22 2.4-3.36 3.438-5.76 5.898-12.22 5.52-20.88-.16-3.68-.75-8.05-1.68-11.52-.64-2.38-2.91-5.21.96-6 2.63 2.41 1.86 8.22 4.8 10.32 2.93-1.4 3.74-4.67 6.96-6.48 2.02-1.14 6.15-1.82 9.36-1.68 2.92.12 5.61 1.1 6.96 3.12z"/>
  <path fill="#48BF4C" d="M335.796 80.968c6.87.45 11.08 5.8 10.32 13.92-.38 4.12-5.25 10.02-8.4 11.76-1.34.74-2.61.55-3.84 1.44-2.11-.49-1.99-.03-3.84.48-.58 4.64-.15 9.01-2.64 13.198-.53.89-1.49 1.77-2.16 2.64-2.47 3.2-4.71 5.81-9.12 7.44-2.28.84-3.98.83-6.72.72-2.58 2.39-4.29 6.25-8.16 8.16-.75.37-1.92.61-2.88.96-5.19 1.89-12.25 1.86-17.28-1.68-2.41-3.71-7.1-7.56-5.04-14.16-1.93-1.55-4.54-2.73-5.04-6.24-.19-1.36.08-3.21 0-5.04-.15-3.48-.95-6.15-.48-9.12-1.71-.61-2.86 1.04-5.28.48-1.82-1.21-1.75-3.85-3.84-4.32-1.93-.44-4.32.71-5.04 2.4-1.08 2.54.14 7.26-1.2 10.08-.96 2.03-3.16 3.14-5.76 1.92-.39-1.29.62-3.02.48-4.8-.17-2.07-1.45-4.35-3.12-4.56-1.7-.22-3.61 1.53-5.04 1.68-2.27.24-5.34-.68-8.16-1.44-2.76-.75-5.3-1.09-7.2-2.4-1.69-1.16-2.12-4.14-5.28-2.4-.8.44-.55 1.16-1.44 1.2-2.04.102-3.09-3.29-4.56-3.36-1.44-.06-2.94 2.25-3.6 4.08-1.43 3.96-1.52 10.36-1.2 13.68.09.952.55 1.82.72 2.882.57 3.68.44 8.09 1.44 12.24.33 1.38 1.03 2.36 1.2 4.08.43 4.5-.36 12.37-2.4 15.12-1.23 1.65-3.57 2.74-6.48 1.92-2.92-7.34 3.55-14.69 2.4-23.52-.24-1.86-1.14-4.73-1.92-6.722-.86-2.18-2.89-6.82-5.04-6.48-1.08.17-1.58 1.91-2.4 3.12-1.81 2.66-3.49 4.32-8.4 4.08-1.47 1.38-1.43 3.31-2.88 4.32-1.35.94-3.83 1.33-5.04 1.44-12.87 1.12-20.03-12.03-26.4-18-6.1 1.26-11.85-1.01-15.12-4.08-2.228-3.77-2.43-8.49-4.56-12-.36-.09-.67-.13-.96-.13l.99-2.45c1.7.48 3.69.69 5.97.42 1.4-.16 2.68-1.02 4.08-.96.06 1.22-.03 2.95.96 3.84.66.59 1.95.29 3.6.72.87.23 1.54.89 2.16.96 1.35.16 6.96.07 8.4-.48 2.38-.92 3.24-4.68 4.8-6.24 1.91.41 2.92-.75 4.32-.96 4.65-.69 8.84.54 13.92.96 1.97.16 4.26 1.01 6 1.44.74.18 1.61.06 2.16.24 1.68.54 3.25 1.62 4.8 2.16 3.86 1.34 7.48 2.202 10.56-.72 2.2 1.59 5.39.73 9.6.96.75.04 1.472.44 2.16.48 4.67.3 8.16-1.38 11.04-2.64 1.9-1.92 2.25-3.99 3.12-7.44.92-3.62 2.05-8.08 2.88-12.48 1.09-5.82 2.19-12.2 2.642-18 .28-3.62 0-7.78.48-11.04v-.72c1.61-.09 3.02.02 4.08.48 1.14 3.15-.05 6.29-.48 9.36-.28 1.99-.11 4.21-.48 6.48-.73 4.51-2.07 9.15-3.12 13.92-.62 2.83-1.13 6.96-1.68 10.32-.46 2.81-1.13 6.3-.72 7.68.39 1.32 3.01 3 4.56 3.36 1.53.35 4.47.48 6.24.48 3.24 0 6.61-1.65 8.88-3.12 6.35 4.592 15.14 7.7 25.2 9.36 2.92.48 5.26 1.41 8.64 1.44 1.37.01 2.99-.38 4.56-.48 2.94-.19 5.75-.26 9.12-1.2 1.11-.31 2.46-1.07 3.602-1.68 2.85-1.53 5.88-3.05 8.4-5.04 4.46 3.47 15.1 4.24 19.68.24 1.106-3.798-.404-10.068.236-14.638z"/>
  <path d="M331.476 158.248c.13 3.71-4.85 6.84-8.4 6.72-2.48-.08-5.1-1.95-5.76-3.6-.89-2.21.03-5.6 1.2-6.96 1.14-1.32 3.34-1.99 5.28-2.16 2.91-.25 7.55 2.11 7.68 6zm-11.76 1.92c1.34 3.91 9.23 2.25 9.12-1.68-.07-2.37-3.24-3.86-4.8-3.84-3.07.04-5.38 2.41-4.32 5.52z"/>
  <path fill="#EF5615" d="M328.836 158.488c.11 3.93-7.78 5.59-9.12 1.68-1.06-3.11 1.25-5.48 4.32-5.52 1.56-.02 4.73 1.47 4.8 3.84z"/>
  <path fill="#D3A6D4" d="M323.556 67.048c1.17 9.47-2.41 17.99-6.96 24.24-1.29.55-2.67 1.01-2.88 2.64-4.102 2.15-8.08 5.48-13.44 6.48-8.21 1.54-17.84.29-24.96-1.68-6.54-1.81-13.16-4.51-17.28-8.4.81-2.44.5-4.97.72-7.68.49-6.01 2.16-12.38 2.64-18.72.14-1.84-.14-3.7 0-5.52.16-2.16.67-4.53.96-6.72.3-2.23.59-4.3 1.92-5.76 5.14-1.26 10.22 1.86 14.4.72 3.58-.98 3.46-5.04 4.8-8.64.11-.91 1.13.05 1.92-.48 2.08-.88 4.82-1.66 6.96-1.92 3.55-.43 6.75.24 9.84.96 4.272.99 6.062 1.74 9.12 4.32 4.29 3.62 7.522 8.41 9.6 14.64.48 1.45 1.15 2.88 1.44 4.08.36 1.53.21 3.28.48 4.8.16.91.62 1.83.72 2.64zm-11.52 5.76c2.69-8.62-4.84-15.06-12.24-14.16-5.31.65-8.188 5.72-9.6 10.08-.41 1.28-.94 3.06-.96 4.08-.06 3 2.12 7.4 4.08 8.4 1.7.87 7.68 1.44 10.08.96.9-.18 1.66-.89 2.64-1.44.99-.55 2.14-.93 2.64-1.44.98-.99 2.64-4.16 3.36-6.48zm-26.64 1.92c1.42-2.6 2.47-6.53 2.16-9.36-.27-2.42-1.77-5.35-4.08-6.72-1.312-.77-3.25-.84-4.8-1.2-1.512-.35-3.07-1.19-4.8-1.2-4.662-.01-9.432 3.77-11.042 6.48-1.74 2.92-1.82 6.26-1.68 10.32.6.68.95 1.61 1.2 2.64 2.15 1.48 3.24 3.34 5.04 4.56 2.97 2.02 8.91 2.21 12.72 0 1.752-1.02 4.442-3.98 5.282-5.52z"/>
  <path fill="#FFF" d="M317.076 35.848c.15 2.31-.43 3.89-.96 5.52-1.25-.75-2.4-1.6-3.12-2.88.78-1.38 2.48-1.84 3.602-2.88.278-.04.428.05.478.24z"/>
  <path d="M299.796 58.648c7.4-.9 14.93 5.54 12.24 14.16-.72 2.32-2.38 5.49-3.36 6.48-.5.51-1.65.89-2.64 1.44-.98.55-1.74 1.26-2.64 1.44-2.4.48-8.38-.09-10.08-.96-1.96-1-4.142-5.4-4.08-8.4.02-1.02.55-2.8.96-4.08 1.41-4.36 4.29-9.43 9.6-10.08zm10.08 13.2c1.13-4.54-.9-6.61-3.12-8.4-2.25-1.81-3.62-2.96-7.44-2.16-.15.03-.33-.04-.478 0-1.24.38-3.76 2.34-4.32 3.12-2.29 3.17-3.74 11.64-.24 14.16.73.53 2.01.56 3.36.72 1.38.17 3.02.47 3.84.48 1.62.01 4.21-1.2 5.04-1.92 1.108-.97 2.878-4.07 3.358-6z"/>
  <path fill="#FFF" d="M306.756 63.448c2.22 1.79 4.25 3.86 3.12 8.4-.48 1.93-2.25 5.03-3.36 6-.83.72-3.42 1.93-5.04 1.92-.82-.01-2.46-.31-3.84-.48-1.35-.16-2.63-.19-3.36-.72-3.5-2.52-2.05-10.99.24-14.16.56-.78 3.08-2.74 4.32-3.12.15-.04.33.03.48 0 3.82-.8 5.19.35 7.44 2.16zm-1.44 10.8c1.06-3.96-1.23-6.68-4.08-8.4-1.12.16-2.87-.31-3.6.24-3.82.54-4.91 7.3-2.4 10.08 2.33 2.59 9.08 1.86 10.08-1.92z"/>
  <path d="M301.236 65.848c2.85 1.72 5.14 4.44 4.08 8.4-1 3.78-7.75 4.51-10.08 1.92-2.51-2.78-1.42-9.54 2.4-10.08.73-.55 2.48-.08 3.6-.24zm-.48 6c.16-.96.52-1.72.48-2.88-1.98-2.01-5.352.7-4.8 2.64.49 1.72 2.94 1.25 4.32.24z"/>
  <path fill="#FFF" d="M301.236 68.968c.04 1.16-.32 1.92-.48 2.88-1.38 1.01-3.83 1.48-4.318-.24-.553-1.94 2.818-4.65 4.798-2.64z"/>
  <path d="M287.556 65.368c.31 2.83-.74 6.76-2.16 9.36-.84 1.54-3.53 4.5-5.28 5.52-3.81 2.21-9.75 2.02-12.72 0-1.8-1.22-2.89-3.08-5.04-4.56-.25-1.03-.6-1.96-1.2-2.64-.14-4.06-.06-7.4 1.68-10.32 1.61-2.71 6.38-6.49 11.04-6.48 1.73.01 3.29.85 4.8 1.2 1.552.36 3.49.43 4.802 1.2 2.308 1.37 3.808 4.3 4.078 6.72zm-4.08 7.68c2.03-4.09 2.09-8.53-.48-11.52-3.2-1.28-7.18-3.06-11.28-2.64-2.35.64-6.35 3.57-7.198 5.28-.72 1.46-1.39 5.51-.96 7.68.47 2.36 2.11 3.13 3.6 4.56 1.18 1.13 1.9 2.25 3.12 2.64 2.36.75 6.71.1 8.64-.96 1.398-.77 3.608-3.12 4.558-5.04z"/>
  <path fill="#FFF" d="M282.996 61.528c2.57 2.99 2.51 7.43.48 11.52-.95 1.92-3.16 4.27-4.562 5.04-1.93 1.06-6.278 1.71-8.64.96-1.22-.39-1.94-1.51-3.12-2.64-1.49-1.43-3.13-2.2-3.6-4.56-.43-2.17.24-6.22.96-7.68.85-1.71 4.85-4.64 7.2-5.28 4.102-.42 8.082 1.36 11.282 2.64zm-5.52 9.36c.76-3.94-2.47-7.85-4.562-8.4-.688-.18-1.31.16-1.92.24-3.54.49-5.75 2.4-6 5.76-.28 3.86 2.56 6.65 4.56 7.2 3.292.91 7.282-1.49 7.922-4.8z"/>
  <path fill="#EF5615" d="M282.036 31.528c.16 1.84-.79 4.38-1.438 6.72-.61 2.21-1.27 4.62-2.4 5.76-2.11.07-4.66.28-6.96-.24-.66-.15-1.06-.66-1.68-.72-2.23-.23-5.99-.15-7.44.96-1.84 1.41-2.29 8.11-2.64 11.28-.16 1.5-.64 3.04-.72 4.08-.09 1.24.35 2.93.24 4.08-.09.92-.59 1.81-.72 2.88-.24 1.9-.17 4.06-.48 6.24-.25 1.82-.72 3.68-.96 5.52-.62 4.68-.2 10.78-2.16 12.72-2.9 2.87-9.72 3.16-14.88.96-.93-2.56.09-5.44.48-8.16.39-2.72.63-5.41 1.2-8.16.55-2.62 1.1-5.29 1.68-7.92.56-2.56 1.28-5.2 1.68-7.68.37-2.32.15-4.76.48-6.96.358-2.36 1.55-7.31 0-9.6-1.142-1.69-4.11-1.39-6.24-2.16.35-3.11.85-4.66 0-7.2-.55-1.63-2.08-2.54-2.4-3.84-.5-2.02.46-3.72.72-6 2.09-.83 6.37-1.19 9.6-1.2 3.77-.01 9.43-.29 14.4.24 1.69.18 3.51.85 5.28 1.2 6.028 1.19 14.818 1.04 15.358 7.2z"/>
  <path d="M272.916 62.488c2.09.55 5.32 4.46 4.562 8.4-.64 3.31-4.63 5.71-7.92 4.8-2-.55-4.84-3.34-4.56-7.2.25-3.36 2.46-5.27 6-5.76.608-.08 1.228-.42 1.918-.24zm1.68 5.28c-.42-3.85-6.31-2.91-6 0 .27 2.52 5.09 1.97 6 0z"/>
  <path fill="#FFF" d="M268.596 67.768c-.31-2.91 5.58-3.85 6 0-.91 1.97-5.73 2.52-6 0z"/>
  <path fill="#EF5615" d="M235.476 32.728c1.71 2.24 1.28 4.43.96 7.44-.49 4.59 0 9.98-.48 15.36-.35 3.91-1.42 7.8-1.92 11.76-.2 1.58-.01 3.26-.24 4.8-.68 4.59-2.55 9.52-3.84 14.16-.46 1.63-.66 3.57-1.2 4.32-1.25 1.74-3.63 2.19-6.24 2.4-1.21.1-2.36.49-3.36.48-1.16-.02-2.42-.46-3.6-.48-2.53-.04-5.3.81-6.96-.72.42-2.44 2.34-5.22 3.6-8.64.55-1.49 1.25-3.05 1.92-4.56 1.5-3.39 2.69-8.03 3.36-12.96.65-4.76-.14-9.82-5.04-10.08-.6-4.78-.06-9.16.72-13.68.33-1.88.9-4.98 1.68-6 1.04-1.35 4.42-2.03 6.48-2.64 4.21-1.24 9.44-2.62 14.16-.96z"/>
  <path d="M234.036 127.768c1.2.87 2.56 4.16 1.92 6-1.42 4.09-8.79 3.02-9.6-.72-.72-3.32 1.19-5.48 4.8-5.76.94-.07 2.02-.14 2.88.48zm-.48 5.04c.67-2.3-2.95-4.48-4.56-1.92-.71 3.39 3.94 4.02 4.56 1.92zM234.036 12.568c.4 2.41 1.69 3.39 1.68 5.76-.04 11.05-20.11 8.73-16.56-2.4 1.44-4.52 9.6-7.46 14.88-3.36zm-5.76 10.56c3.35-.24 6.5-4.51 3.84-7.44-1.06-.38-1.29-1.59-2.16-2.16-3.72-1.46-7.33.55-8.16 3.12-1.4 4.34 3.35 6.71 6.48 6.48z"/>
  <path fill="#EF5615" d="M228.996 130.89c1.61-2.562 5.23-.382 4.56 1.92-.62 2.098-5.27 1.467-4.56-1.92zM232.116 15.688c2.66 2.93-.49 7.2-3.84 7.44-3.13.23-7.88-2.14-6.48-6.48.83-2.57 4.44-4.58 8.16-3.12.87.57 1.1 1.78 2.16 2.16zM213.876 59.608c1.4 3.49.47 9.39-.24 12.96-.37 1.89-1.5 3.8-2.4 6-.86 2.11-1.57 4.18-2.4 6-1.08 2.37-3.738 9.4-6.72 9.84-1.65.24-4.67-1.08-6.96-1.92-3.21-1.18-6.29-2.64-10.32-3.12-1.17-.14-2.27.13-3.358 0-1.1-.13-2.03-.76-3.12-.96-3.4-.62-6.93.35-10.8-.72 3.05-7.35 4.12-20.04.48-27.6.85-2.99 2.04-5.64 2.16-9.36-1.19-.97-4.05-.27-6-.48-1.93-5.19-4.11-10.13-4.32-17.04 3.44-3.97 9.38-5.23 15.12-7.44 8.12-3.12 16.74-5.1 27.12-4.32 2.28.17 4.8.64 6.24 1.92 0 2.47-1.79 4.45-3.12 6.24-2.66 3.57-5.82 6.62-8.64 10.08-1.422 1.74-2.54 3.6-3.842 5.52-4.96 7.37-10.58 14.38-13.2 24.24 2.05 2.8 5.25.65 7.2-.72 4.22-2.97 8.06-5.97 13.44-7.68 1.29-.41 2.93-.57 4.32-.96 2.86-.81 5.7-1.95 9.36-.48z"/>
  <path d="M167.316 140.008c1.15 1.42 1.39 3.73 1.44 6.24-2.17 5.12-11.04 4.44-11.04-1.44 0-2.29 2.35-5.53 4.8-5.76 1.66-.15 3.07 1.25 4.8.96zm-1.2 5.76c-.08-1.53-.08-2.92-.96-3.6-1.75-1.34-4.88.04-5.04 1.92-.24 2.9 4.62 4.67 6 1.68z"/>
  <path fill="#EF5615" d="M167.796 70.408c.65 9.49-3.18 19.49-8.16 24.96-3.82.53-8.16.78-11.52-.96-.44-2.08.5-2.84-.72-4.32-3.46-.38-6.89 2.26-11.04 1.44-2.26-.45-3.71-2.37-5.52-3.36.58-3.62-1.74-5.5-2.64-8.16-.43-1.26-.71-2.68-1.2-4.08-.99-2.81-1.56-4.54-.24-7.44 1.18-1.07 2.38-1.39 3.6-1.92 2.33-1.01 4.58-1.96 7.68-.48 1.47.7 2.83 2.34 3.84 2.16 1.79-.33 1.73-4.1 1.2-5.52-1.1-2.99-6.92-4.05-9.84-2.16-2.63-.99-3.86-3.77-3.84-6.72 1.66-1.12 2.5-2.06 4.32-2.16 2.26-.12 4.37 1.88 6 1.92.65.02 1.89-.61 2.88-.96 1.01-.35 2.1-.66 2.88-.96 2.13-.82 3.13-2.08 6.72-1.68 2.19.24 4.5 1.45 6.24 2.4.65.36 1.52.68 1.92.96 4.68 3.29 6.98 10.43 7.44 17.04zm-27.12 9.36c1-1.35.15-4-.72-4.8-.69-.63-2.58-1.26-4.56-.96-1.94.3-5.33 2.27-4.56 5.28.11.43 1.21 1.67 1.92 1.92 1.65.59 6.99-.18 7.92-1.44zM165.156 142.168c.88.68.88 2.07.96 3.6-1.38 2.99-6.24 1.22-6-1.68.16-1.88 3.29-3.26 5.04-1.92z"/>
  <path fill="#EF5615" d="M146.436 40.648c.94 2.64.41 5.59-.72 8.16-1.83.19-3.78 1.93-5.76 1.92-2.44-.01-3.59-1.86-6.96-1.44-3.18.39-7.62 4.12-8.88 6.72-1.04 2.15-1.01 4.47-1.68 6.96.89 2.08.22 6.07.72 8.88.34 1.89 1.28 3.62 1.92 5.52.71 2.1 1.09 4.12 1.68 5.52.35.85 1.51 2.59 1.44 3.12-.12.96-1.772 1.71-2.88 2.4-4.05 2.51-8.55 5.64-15.36 5.28-1.76-1.74-2.98-5.03-4.56-7.68-.58-.98-1.38-1.61-1.44-2.4-.06-.79.76-1.52.96-2.4.27-1.19.45-2.81.72-4.32 1.81-10.29 1.47-24.15-4.8-30.96-.21-2.83-1.62-4.46-2.16-6.96 2.35-2.62 8.29-7.05 13.44-7.68 3.04-.37 5.78 1.72 6.24 4.56.28 1.74-.75 3.47.96 3.84 1.478.32 3.37-3.04 4.8-3.84 5.01-2.81 14.18-1.07 18.48 1.44 1.36.79 3.31 1.87 3.84 3.36z"/>
  <path d="M139.956 74.968c.87.8 1.72 3.45.72 4.8-.93 1.26-6.27 2.03-7.92 1.44-.71-.25-1.81-1.49-1.92-1.92-.77-3.01 2.62-4.98 4.56-5.28 1.98-.3 3.87.33 4.56.96zm-1.44 3.36v-1.44c-1.58-1.31-5.19-.84-5.04 1.68 1.18.73 3.5.07 5.04-.24z"/>
  <path fill="#48BF4C" d="M135.426 93.508l-.99 2.45c-1.59 0-2.2 1.17-3.6 1.09-1.78-.1-2.41-2.43-4.32-2.64-1.71-.18-3.15 1.13-3.84 2.16-1.8 2.69-1.67 8.36-1.44 12.48.06 1.14.56 2.39.48 3.36-.11 1.34-1.41 4.09-2.88 5.04-2 1.3-5.53 1.068-6-1.922-.19-1.22.61-2.16.72-3.36.33-3.608-.36-7.21-2.16-9.358-1.36-.16-1.78 1.18-3.12 1.44-1.37.27-2.68-.562-4.08 0-1.55 3.62-2.14 7.278-5.28 9.6-.45.33-1.05.33-1.68.72-.97.61-2.96 2.32-4.32 2.88-3 1.24-8.45 1.82-13.2 1.44-2.72-.22-3.938-1.32-6.478-2.64-3.29-1.71-6.52-3.17-7.2-7.2-2.78 1.37-8.54 4.16-11.52.96-.21-3.44-.93-6.65-3.84-6.72-2.24-.06-2.91 2.01-4.32 3.6-1.23 6.93-.99 17.95-2.16 26.16-.14 1-.08 2.08-.24 2.88-.56 2.85-2.91 7.44-5.52 8.16-1.42.39-2.87-.12-4.32-.24-2.93-3.43-1.12-8.05-.24-12.24.86-4.08 1.6-8.8 1.92-13.2.21-2.85.45-6.04.24-8.88-.31-4.2-1.27-9.99-4.32-11.52-1.08-.54-2.3-.36-3.12-.72-1.4-.62-3.06-1.97-3.36-3.12-.68-2.57 1.29-4.47 1.44-6.96-.53-.99-2.26-.78-3.36-1.2-.8-.87-1.5-1.86-2.16-2.88.09-1.68-.14-3.29.24-4.8 1.24-4.96 6.68-10.42 12-10.8 1.15.57 1.12 2.12 1.44 3.12 2.38 7.48 4.94 16.55 8.16 23.76.18 1.14-.27 1.65-.24 2.64.88.76 2.53 1.43 4.08 1.44.99 0 2.07-.62 3.6-.962 2.04-.46 4.31-.47 5.52-.96.8-.32 2.93-1.89 3.12-2.64.37-1.48-1.1-4.04-1.92-6-1.62-3.88-2.44-7.29-3.6-12-.38-1.54-1.73-4.8 1.44-4.8-.75 6.3.05 11.63 3.36 15.36 1.51 1.7 4.91 3.91 7.44 4.56 5.02 1.29 10.2-.39 14.4-2.4.478 1.9.1 3.94 1.438 5.28 1.69 1.69 4.84 1.8 8.64 1.92 3.29.11 6.64.42 8.64-.96 2.92-2.01 2.25-5.42 4.08-7.92 2.21 2.83 3.22 6.86 6 9.12 9.23.59 13.61-3.67 19.44-6.48 1.21.1 1.96 1.4 3.12 2.16 1.05.682 2.34 1.322 3.87 1.742z"/>
  <path d="M104.196 149.128c.97 1.37.59 3.11.24 5.04-2.72 1.03-6.29-1.76-6.96 1.68-.24 1.21.99 2.47.72 3.84-.17.86-1.32 1.96-2.16 2.16-1.96.46-4.17-1.08-5.76-1.68-2.79 2.24-1.09 6.01-.72 9.36.37 3.36.25 8.44-1.68 11.28-1.83 2.69-6.94 3.05-7.44-1.68-.25-2.33.35-6.68 1.2-9.602.46-1.58 1.88-5.31.96-7.92-.6-1.7-2.99-4.24-6.48-3.84-3.56.41-3.9 5.48-8.4 4.32-1.35-1.3-1.34-2.9-1.2-3.84.28-1.97 2.62-3.66 4.32-4.8 1.16-.78 2.29-.94 2.4-1.92.15-1.31-2.08-2.45-2.4-3.6-1.03-3.74 2.51-4.84 5.04-5.28-.44-1.64-1.57-2.59-2.88-3.36-.47-1.93-1.79-3.01-1.44-5.76.85-.58.9-1.47 1.68-1.68 3.68-1.01 4.72 4.24 6.96 5.28 1.91-.69.81-2.76 1.44-4.08.41-.86 1.69-2.12 2.88-2.16 2.66-.1 2.74 3.56 4.8 4.08 2.34.59 3.95-1.29 5.04-3.12 1.32-.84 2.65-1.67 3.36-3.12 1.44-.25 2.44-1.37 4.08-.72 2.38 3.28.16 4.76-1.68 6.96-.91 1.09-2.4 2.92-2.4 3.84 0 1.64 2.65 3.15 3.12 5.04.26 1.06.02 1.75 0 3.36.96 1.082 2.48.683 3.36 1.922zm-4.8 2.4c1.19-.12 2.64 1.08 3.12 0-.56-2.38-1.54-.68-2.88-1.68-1.81-1.35-.51-2.81-1.2-5.52-.34-1.33-1.71-2.32-2.47-3.35-.18-.24-.32-.48-.41-.73-.08-3.67 2.09-5.562 3.6-7.44.69-.86 2.05-1.51.96-2.64-3.57.66-4.99 6.17-8.64 6.96-1.6.35-3.46.06-4.32-.48-1.27-.8-.91-3.37-3.12-3.6-1.33.63-.32 2.35-.48 3.84-.78 1.38-1.97 2.38-3.36 2.4-3.35.06-3.56-4.78-6.48-5.28.03 4.69 4.69 4.75 4.802 9.36l-.24.96c-1.19.64-4.84.198-5.28 1.92-.39 1.51 2.16 2.59 2.4 4.08.94 5.97-8.16 4.198-6.72 9.6 3.89-1.13 4.1-4.42 8.16-4.56 3.23-.11 6.53 2.29 7.44 4.56 1.99 4.96-.95 10.66-1.44 14.88-.34 2.96-.64 5.83 1.44 5.76.85-.03 2.41-2.11 2.88-4.56.63-3.27-.5-6.91-.72-9.84-.24-3.15.398-6.28 1.68-7.44 2.78-2.52 4.16 1.06 7.44.48-1.512-3.65.508-7.35 3.838-7.68z"/>
  <path fill="#EF5615" d="M97.716 46.408c5.97 4.06 7.34 18.85 5.76 28.56-.44 2.73-1.41 5.99-2.4 9.12-1.46 4.63-1.95 9.14-6.72 9.6-3.39.32-8.09-.35-10.8-1.2-1.79-2.62 1.02-7.18-1.68-8.64-1.4.61-2.41 1.79-3.84 2.64-3.25 1.93-9.29 3.42-13.92 1.2-.54-.26-1.06-1.04-1.68-1.44-2.1-1.35-2.53-1.72-3.84-4.56-1.37-2.98-2.45-7.42-.48-11.52 4.01-1.35 7.79-2.93 10.08-6 3.66-.66 6.3-2.34 10.8-2.16 2.36-4.59-2.28-10.02-7.2-7.44.02-2.37-1.62-4.3-1.2-6 .96-3.91 11.36-6.58 18.72-5.76 3.85.43 5.99 3.06 8.4 3.6zm-22.8 29.52c.97-1.46.68-3.67 0-5.28-4.28-1.98-9.9.69-10.32 4.56-.21 1.96 1.27 5.03 3.36 5.04 1.83.01 2.61-2.11 4.08-3.12.93-.64 1.73-.6 2.88-1.2z"/>
  <path fill="#48BF4C" d="M102.516 151.527c-.48 1.08-1.93-.12-3.12 0-3.33.33-5.35 4.03-3.84 7.68-3.28.58-4.66-3-7.44-.478-1.28 1.16-1.92 4.288-1.68 7.438.22 2.93 1.35 6.57.72 9.84-.47 2.45-2.03 4.53-2.88 4.56-2.08.07-1.78-2.8-1.44-5.76.49-4.22 3.43-9.92 1.44-14.88-.91-2.27-4.21-4.67-7.44-4.56-4.06.14-4.27 3.43-8.16 4.56-1.44-5.4 7.66-3.63 6.72-9.6-.24-1.49-2.79-2.57-2.4-4.08.44-1.72 4.09-1.28 5.28-1.92-3.44 7.77 5.38 16.5 13.2 11.28 4.6-3.07 6.79-9.95 3.86-14.23l.63-.4c.76 1.03 2.13 2.02 2.47 3.35.69 2.71-.61 4.17 1.2 5.52 1.34 1 2.32-.7 2.88 1.68z"/>
  <path fill="#48BF4C" d="M100.116 130.168c1.09 1.13-.27 1.78-.96 2.64-1.51 1.88-3.68 3.77-3.6 7.44.09.25.23.49.41.73l-.63.4c-.92-1.33-2.34-2.41-4.34-3.05-5.75.09-9.71 1.97-12.48 5.04-.11-4.61-4.77-4.67-4.8-9.36 2.92.5 3.13 5.34 6.48 5.28 1.39-.022 2.58-1.022 3.36-2.4.158-1.49-.852-3.21.478-3.84 2.21.228 1.85 2.8 3.12 3.6.86.54 2.72.83 4.32.48 3.652-.79 5.072-6.3 8.642-6.96z"/>
  <path d="M95.336 141.378c2.93 4.28.74 11.16-3.86 14.23-7.82 5.22-16.64-3.51-13.2-11.28l.24-.96c2.77-3.07 6.73-4.95 12.48-5.04 2 .64 3.42 1.72 4.34 3.05zm-1.94 8.71c2.55-4.34.17-9.78-5.28-9.36-3.47.27-7.16 2.51-7.92 4.32-.28.67-.55 2.67-.48 3.6.35 4.58 5.98 6.94 9.6 5.52 1.28-.5 3.34-2.81 4.08-4.08z"/>
  <path fill="#EF5615" d="M88.116 140.73c5.45-.42 7.83 5.02 5.28 9.358-.74 1.27-2.8 3.58-4.08 4.08-3.62 1.42-9.25-.94-9.6-5.52-.07-.93.2-2.93.48-3.6.76-1.81 4.45-4.05 7.92-4.32z"/>
  <path d="M74.916 70.648c.68 1.61.97 3.82 0 5.28-1.15.6-1.95.56-2.88 1.2-1.47 1.01-2.25 3.13-4.08 3.12-2.09-.01-3.57-3.08-3.36-5.04.42-3.87 6.04-6.54 10.32-4.56zm-1.92 3.36v-1.68c-2.9-.7-7.75 2.36-5.04 5.04 1.61-1.19 2.94-2.66 5.04-3.36z"/>
  <path fill="#EF5615" d="M69.156 53.368c.07 1.21-.24 4.81-.72 6-.3.75-1.25 1.77-1.92 2.64-1.53 1.99-2.7 2.87-4.8 4.32-2.18.24-4.32 1.47-6.48 2.16-2.06.66-4.53.88-5.28 3.12 1.41 7.95 3.8 14.92 6.48 21.6-2.76 1.53-6.72 2.98-10.8 2.4-2.57-7.34-4.86-14.57-7.2-22.08-.37-1.2-1.07-2.19-1.44-3.36-.41-1.29-.31-2.74-.72-4.08-1.35-4.47-3.41-8.93-3.84-13.92 4.86-5.44 15.73-10.86 26.16-9.84 2.96.29 5.59 1.59 7.44 3.36.78.74 1.88 1.86 2.16 2.64.24.67.03 1.97.24 2.88.2.87.68 1.53.72 2.16zm-21.36 7.2c8.3 1.14 12.65-7.17 6.24-11.28-3.55-.39-7.02-.02-9.36 1.92-.61 1.44.48 2.81.96 4.32.56 1.79.42 4.24 2.16 5.04z"/>
  <path d="M54.036 49.288c6.41 4.11 2.06 12.42-6.24 11.28-1.74-.8-1.6-3.25-2.16-5.04-.48-1.51-1.57-2.88-.96-4.32 2.34-1.94 5.81-2.31 9.36-1.92zm-5.28 8.4c3.49.44 6.28-1.33 6-3.6-.31-2.59-5.01-2.65-7.44-1.44.29 1.87.89 3.43 1.44 5.04z"/>
</svg>
