<?xml version="1.0" encoding="utf-8"?>
<!-- Generator: Adobe Illustrator 14.0.0, SVG Export Plug-In . SVG Version: 6.00 Build 43363)  -->
<!DOCTYPE svg PUBLIC "-//W3C//DTD SVG 1.1//EN" "http://www.w3.org/Graphics/SVG/1.1/DTD/svg11.dtd">
<svg version="1.1" id="eÌcran_titre_xA0_Image_1_" xmlns="http://www.w3.org/2000/svg" xmlns:xlink="http://www.w3.org/1999/xlink"
	 x="0px" y="0px" width="370.482px" height="192px" viewBox="0 0 370.482 192" enable-background="new 0 0 370.482 192"
	 xml:space="preserve">
<g id="XMLID_1_">
	<g>
		<path d="M357.156,58.408c0.45,3.28-1.439,8.87-2.64,11.04c-0.551,0.99-2.08,2.94-3.36,3.12c-2.37,0.33-5.92-2.97-9.359-3.12
			c-5.261-0.22-5.319,3.57-6,8.88c1.601,0.92,3.431,0.52,5.04,1.2c2.391,1.02,6.399,4.91,7.199,7.68c0.761,2.66,0.58,5.95,0.24,8.4
			c-0.811,5.94-6.97,12.26-12.24,14.16c-1.17,0.42-2.529,0.431-3.6,0.721c-0.24,6.32-2.011,10.789-4.8,14.64
			c-3.11,4.29-7.961,8.729-13.921,9.84c-0.801,0.15-2.061-0.27-2.88,0c-2.181,0.72-3.131,3.761-4.561,5.04
			c-1.17,1.051-3.21,2.11-5.04,2.881c-3.67,1.549-9.32,3.199-14.88,2.159c-4.521-0.84-7.07-3.229-9.36-6.239
			c-1.229-1.631-2.76-3.61-3.359-5.761c-0.489-1.76,0.12-3.89-0.721-6c-0.608-1.521-2.818-2.38-3.6-4.319
			c-1.681-4.19,0.09-8.67-1.44-14.16c-4.52,0.359-5.71-2.61-7.92-4.561c-2.83,1.76-1.22,6.141-2.16,9.6
			c-0.88,3.261-4.31,6.16-9.359,5.041c-3.521-1.601,0.63-6.711-1.92-9.121c-2.171-0.039-4.28,1-6.721,0.961
			c-2.17-0.03-4.77-0.82-7.2-1.44c-4.409-1.12-7.899-1.88-10.079-4.8c-2.141,2.72-6.131,0.72-7.921-1.439
			c-1.109,1.68-1.92,4.299-2.159,6.959c-0.49,5.471,0.55,10.601,1.199,15.84c0.32,2.541,1.16,5.031,1.681,7.44
			c1.54,7.22,1.279,18.181-3.84,22.32c-3.2,2.59-8.94,2.39-10.08-1.92c-0.59-2.2,0.06-4.66,0.479-7.2c0.24-1.42,0.42-3.02,0.72-4.32
			c0.65-2.8,2.431-5.06,2.4-8.64c-0.02-2.63-1.03-5.021-1.68-6.96c-0.721-2.15-1.271-3.86-2.641-5.76
			c-1.479,1-1.689,2.75-3.119,3.84c-1.7,1.289-4.171,2.109-6.721,2.64c-1.51,2.591-2.66,4.399-6,5.28
			c-1.67,0.439-4.14,0.74-5.279,0.72c-2.671-0.04-8.181-1.86-10.32-3.12c-0.86-0.51-1.69-1.5-2.641-2.16
			c-4.76-3.34-8.819-8.859-12.96-12.959c-6.35,0.93-10.699-1.631-14.399-4.08c-2.54-3.381-4.37-7.471-5.76-12
			c-3.24,1.27-6.08-0.101-7.681-1.92c-2.08,1.729-2.319,4.819-2.399,7.92c-0.15,6.039,1.66,10.219-2.4,13.92
			c-0.96,0.879-3.38,2.319-5.76,2.16c-2.65-0.181-3.67-2.371-4.8-4.561c0.62-3.689,1.529-7.141,0-10.32
			c-1.721,0.131-3.431,0.25-4.801,0.721c-0.85,3.83-2.829,6.699-5.76,9.119c-3.229,2.66-8.17,4.95-12,5.28
			c-0.71,0.06-1.359-0.239-2.16-0.239c-2.05,0.01-5.67,0.729-8.399,0.239c-1.46-0.26-3.2-1.44-5.04-2.399
			c-3.3-1.721-6.36-3.25-7.681-6.721c-3.569,1.98-10.279,3.27-12.239-0.96c-0.84-1.8,0.149-4.18-1.92-5.28
			c-3.42,1.561-2.67,6.94-2.88,11.761c-0.19,4.43-0.341,9.12-0.721,13.2c-0.39,4.14-0.72,6.34-1.92,8.879
			c-1.6,3.4-3.43,6.171-7.2,7.44c-11.67,0.58-6.3-13.43-5.04-21.12c0.58-3.58,1.141-7.42,1.2-11.039c0.08-4.44-1.09-8.19-1.439-12
			c-0.681-0.841-1.181-1.86-1.92-2.641c-3.601-0.41-7.54-3.09-7.681-6.72c-0.06-1.44,0.931-2.71,1.2-4.32
			c-3.19-2.26-5.89-3.47-5.04-9.36c0.29-2.01,2.76-6.78,3.84-8.16c0.69-0.88,1.891-1.55,2.88-2.4c2.21-1.89,4.13-3.44,7.44-4.08
			c-0.55-2.14-1.36-4.14-1.92-6.24c-0.55-2.04-1.49-4.86-1.2-6.96c0.38-2.81,4.5-5.07,7.2-6.72c1.479-0.9,3.09-1.71,4.56-2.4
			c3.87-1.83,9.8-3.49,15.601-3.12c5.14,0.33,9.59,2.35,12,5.76c1.1-0.45,1.89-1.46,3.12-2.16c3.96-2.24,10.319-3.86,16.8-3.12
			c3.35,0.38,5.689,1.83,8.16,3.12c0.29-1.77-1.99-2.05-1.44-4.56c0.17-0.76,1.79-1.95,3.12-3.12c2.32-2.04,4.71-3.56,7.92-5.04
			c1.72-0.79,3.87-1.58,4.8-1.68c4.97-0.51,8.07,3.07,8.88,6.96c8.87-7.49,32.98-3.73,28.08,11.76c4.91-0.89,8.9,1.32,12.48,3.12
			c-0.94-5.55-4.601-11.87-4.08-17.52c0.2-2.22,4.53-4.83,7.2-6.24c3.029-1.6,6.01-2.18,8.88-3.12c1.49-0.49,2.8-1.42,4.319-1.92
			c1.65-0.54,3.57-0.92,5.521-1.44c3.88-1.03,7.92-1.44,12.96-1.68c4.2-0.2,12.43-0.3,15.12,3.36c0.12,6.52-4.47,8.33-6.48,12.72
			c-2.63,1.87-4.76,4.42-6.72,6.96c-1.97,2.57-3.97,5.23-5.76,7.92c-1.8,2.71-3.25,5.79-5.04,8.64c-1.79,2.85-3.79,5.61-4.32,9.12
			c1.41,0.02,2.22-1.22,3.36-1.92c2.83-1.75,5.72-3.59,8.88-5.28c3.71-1.98,9.31-2.9,14.4-4.32c0.31-5.4,0.63-10.54,1.439-15.36
			c0.41-2.43,1.48-5.79,2.88-6.96c1.48-1.24,4.65-1.84,7.2-2.64c4.22-1.32,8.02-2.08,13.2-1.44c0.29-2.67,0.27-5.65,1.439-7.44
			c5.051-2,13.851-1.59,19.92-1.44c3.681,0.09,8.03,0.18,11.761,0.96c1.09,0.23,2.04,0.79,3.12,0.96
			c4.739,0.74,10.52,1.23,12.72,4.32c1.41,1.98,1.32,5.59,0.96,8.4c4.62-1.88,10.74-3.02,17.04-1.68c0.72,0.15,1.43,0.78,2.16,0.96
			c2.979,0.74,5.47,0.51,7.199,2.4c1.301-0.47,2.141-1.3,3.359-2.16c1.03-0.72,2.312-2.09,3.602-1.92c4.17,0.55,0.39,8.26,0.72,10.8
			c0.18,1.43,1.439,2.36,1.92,3.36c0.771,1.6,0.82,2.82,1.681,3.84c1.771-0.4,2.601-1.89,4.319-1.68c3.17,0.4,2.86,6.21,4.32,8.88
			c1.148-0.16,1.609-1.4,2.398-2.16c1.392-1.32,3.062-2.53,5.28-3.36c2.99-1.12,10.3-1.98,14.399-0.24
			C354.676,53.288,356.846,56.168,357.156,58.408z M354.516,62.488c0.6-2.56,0.02-4.07-0.96-5.52c-1.352-2.02-4.04-3-6.96-3.12
			c-3.21-0.14-7.341,0.54-9.36,1.68c-3.22,1.81-4.03,5.08-6.96,6.48c-2.939-2.1-2.17-7.91-4.8-10.32c-3.87,0.79-1.601,3.62-0.96,6
			c0.93,3.47,1.52,7.84,1.68,11.52c0.38,8.66-2.08,15.12-5.52,20.88c-0.682,1.14-1.82,1.88-2.4,3.36
			c2.67,2.62,13.01,3.64,15.12-0.24c0.01-2.87,0.06-5.46-0.24-7.68c-0.7-5.19,0.66-10.62,1.92-15.6c0.82-0.64,1.301-1.68,2.16-2.16
			c4.11-2.3,10.37,0.68,13.44,2.16c1.56-0.82,2.21-3.49,2.88-5.52C353.816,63.638,354.385,63.038,354.516,62.488z M346.116,94.888
			c0.761-8.12-3.45-13.47-10.319-13.92c-0.641,4.57,0.869,10.84-0.239,14.64c-4.58,4-15.221,3.23-19.681-0.24
			c-2.521,1.989-5.551,3.51-8.399,5.04c-1.141,0.609-2.49,1.369-3.601,1.68c-3.37,0.939-6.181,1.01-9.12,1.2
			c-1.569,0.101-3.189,0.489-4.561,0.479c-3.38-0.029-5.72-0.959-8.64-1.439c-10.062-1.66-18.851-4.77-25.2-9.36
			c-2.271,1.47-5.641,3.12-8.88,3.12c-1.771,0-4.71-0.13-6.24-0.48c-1.55-0.36-4.17-2.04-4.561-3.36
			c-0.409-1.38,0.261-4.87,0.721-7.68c0.55-3.36,1.06-7.49,1.68-10.32c1.05-4.77,2.39-9.41,3.12-13.92
			c0.37-2.27,0.2-4.49,0.479-6.48c0.431-3.07,1.62-6.21,0.48-9.36c-1.06-0.46-2.47-0.57-4.08-0.48c0,0.24,0,0.48,0,0.72
			c-0.479,3.26-0.2,7.42-0.479,11.04c-0.45,5.8-1.551,12.18-2.641,18c-0.83,4.4-1.96,8.86-2.88,12.48
			c-0.87,3.45-1.22,5.52-3.12,7.44c-2.88,1.26-6.37,2.94-11.04,2.64c-0.689-0.04-1.41-0.44-2.16-0.48
			c-4.21-0.23-7.399,0.63-9.6-0.96c-3.08,2.92-6.7,2.06-10.56,0.72c-1.551-0.54-3.12-1.62-4.801-2.16
			c-0.55-0.18-1.42-0.06-2.16-0.24c-1.739-0.43-4.029-1.28-6-1.44c-5.079-0.42-9.27-1.65-13.92-0.96
			c-1.399,0.21-2.409,1.37-4.319,0.96c-1.561,1.56-2.42,5.32-4.801,6.24c-1.439,0.551-7.05,0.641-8.399,0.48
			c-0.62-0.07-1.29-0.73-2.16-0.961c-1.65-0.43-2.94-0.129-3.6-0.719c-0.99-0.891-0.9-2.621-0.96-3.841
			c-1.4-0.06-2.681,0.8-4.08,0.96c-2.28,0.27-4.271,0.06-5.971-0.42c-1.529-0.42-2.819-1.06-3.869-1.74
			c-1.16-0.76-1.91-2.06-3.12-2.16c-5.83,2.81-10.21,7.07-19.44,6.48c-2.78-2.26-3.79-6.29-6-9.12c-1.83,2.5-1.16,5.91-4.08,7.92
			c-2,1.38-5.35,1.07-8.64,0.96c-3.8-0.12-6.95-0.23-8.641-1.92c-1.34-1.34-0.96-3.38-1.439-5.28c-4.2,2.01-9.38,3.69-14.4,2.4
			c-2.529-0.65-5.93-2.86-7.439-4.56c-3.311-3.73-4.11-9.06-3.36-15.36c-3.17,0-1.82,3.26-1.439,4.8c1.159,4.71,1.979,8.12,3.6,12
			c0.82,1.96,2.29,4.52,1.92,6c-0.19,0.75-2.32,2.32-3.12,2.64c-1.21,0.49-3.479,0.5-5.52,0.959c-1.53,0.341-2.61,0.961-3.601,0.961
			c-1.55-0.01-3.2-0.68-4.08-1.44c-0.029-0.99,0.42-1.5,0.24-2.64c-3.22-7.21-5.78-16.28-8.16-23.76c-0.319-1-0.29-2.55-1.439-3.12
			c-5.32,0.38-10.761,5.84-12,10.8c-0.38,1.51-0.15,3.12-0.24,4.8c0.66,1.02,1.36,2.01,2.16,2.88c1.1,0.42,2.83,0.21,3.359,1.2
			c-0.149,2.49-2.119,4.39-1.439,6.96c0.3,1.15,1.96,2.5,3.359,3.12c0.82,0.36,2.04,0.18,3.12,0.72
			c3.051,1.53,4.011,7.32,4.32,11.52c0.21,2.841-0.03,6.031-0.24,8.881c-0.319,4.4-1.06,9.119-1.92,13.199
			c-0.88,4.19-2.689,8.811,0.24,12.24c1.45,0.12,2.9,0.631,4.32,0.24c2.609-0.72,4.96-5.311,5.52-8.16
			c0.16-0.8,0.101-1.88,0.24-2.88c1.17-8.21,0.93-19.229,2.16-26.159c1.41-1.591,2.08-3.66,4.319-3.601
			c2.91,0.069,3.631,3.28,3.841,6.72c2.979,3.2,8.739,0.41,11.52-0.96c0.68,4.03,3.91,5.49,7.2,7.2c2.54,1.32,3.76,2.42,6.479,2.641
			c4.75,0.379,10.2-0.201,13.2-1.44c1.36-0.56,3.351-2.271,4.32-2.88c0.63-0.391,1.229-0.391,1.68-0.721
			c3.141-2.32,3.73-5.979,5.28-9.6c1.399-0.561,2.71,0.27,4.08,0c1.34-0.26,1.76-1.6,3.12-1.439c1.8,2.149,2.489,5.75,2.16,9.359
			c-0.11,1.2-0.91,2.141-0.721,3.359c0.471,2.99,4,3.221,6,1.921c1.471-0.95,2.771-3.7,2.88-5.04c0.08-0.971-0.42-2.221-0.479-3.36
			c-0.23-4.12-0.36-9.79,1.439-12.479c0.69-1.03,2.131-2.34,3.841-2.16c1.909,0.21,2.54,2.54,4.319,2.64
			c1.4,0.08,2.01-1.09,3.601-1.09c0.29,0,0.6,0.04,0.96,0.13c2.13,3.51,2.33,8.23,4.56,12c3.271,3.07,9.021,5.34,15.12,4.08
			c6.37,5.971,13.53,19.12,26.4,18c1.21-0.109,3.689-0.5,5.04-1.439c1.449-1.011,1.409-2.94,2.88-4.32
			c4.91,0.24,6.59-1.42,8.399-4.08c0.82-1.21,1.32-2.95,2.4-3.12c2.149-0.34,4.18,4.3,5.04,6.479c0.78,1.99,1.68,4.86,1.92,6.721
			c1.149,8.83-5.32,16.18-2.4,23.52c2.91,0.82,5.25-0.27,6.48-1.92c2.04-2.75,2.83-10.619,2.399-15.119
			c-0.17-1.721-0.869-2.701-1.199-4.08c-1-4.15-0.87-8.561-1.44-12.24c-0.17-1.061-0.63-1.93-0.72-2.881
			c-0.32-3.319-0.23-9.72,1.2-13.68c0.659-1.83,2.159-4.14,3.6-4.08c1.47,0.07,2.52,3.461,4.56,3.36
			c0.891-0.04,0.641-0.761,1.44-1.2c3.16-1.74,3.59,1.24,5.28,2.4c1.899,1.31,4.439,1.65,7.199,2.4c2.82,0.76,5.891,1.68,8.16,1.439
			c1.431-0.15,3.34-1.9,5.04-1.68c1.67,0.209,2.95,2.49,3.12,4.56c0.141,1.78-0.87,3.51-0.479,4.8c2.6,1.221,4.8,0.11,5.76-1.92
			c1.34-2.82,0.12-7.54,1.2-10.08c0.72-1.689,3.109-2.84,5.04-2.4c2.09,0.471,2.02,3.11,3.84,4.32c2.42,0.561,3.569-1.09,5.28-0.479
			c-0.471,2.97,0.329,5.64,0.479,9.12c0.08,1.83-0.189,3.68,0,5.039c0.5,3.511,3.11,4.69,5.04,6.24
			c-2.06,6.601,2.63,10.45,5.04,14.16c5.03,3.54,12.09,3.57,17.28,1.68c0.96-0.35,2.13-0.59,2.88-0.959
			c3.87-1.91,5.58-5.771,8.16-8.16c2.739,0.109,4.439,0.119,6.72-0.721c4.41-1.63,6.65-4.24,9.12-7.439
			c0.67-0.87,1.63-1.75,2.16-2.641c2.489-4.189,2.06-8.56,2.64-13.199c1.851-0.51,1.73-0.971,3.841-0.48
			c1.229-0.89,2.5-0.699,3.84-1.439C340.866,104.908,345.736,99.008,346.116,94.888z M316.596,91.288
			c4.55-6.25,8.13-14.77,6.96-24.24c-0.102-0.81-0.562-1.73-0.721-2.64c-0.271-1.52-0.12-3.27-0.479-4.8
			c-0.29-1.2-0.96-2.63-1.44-4.08c-2.079-6.23-5.31-11.02-9.6-14.64c-3.061-2.58-4.851-3.33-9.12-4.32
			c-3.09-0.72-6.29-1.39-9.84-0.96c-2.141,0.26-4.88,1.04-6.96,1.92c-0.79,0.53-1.811-0.43-1.92,0.48
			c-1.341,3.6-1.221,7.66-4.801,8.64c-4.181,1.14-9.26-1.98-14.399-0.72c-1.33,1.46-1.62,3.53-1.92,5.76
			c-0.29,2.19-0.8,4.56-0.96,6.72c-0.141,1.82,0.14,3.68,0,5.52c-0.48,6.34-2.15,12.71-2.641,18.72c-0.22,2.71,0.091,5.24-0.72,7.68
			c4.12,3.89,10.74,6.59,17.28,8.4c7.12,1.97,16.75,3.22,24.96,1.68c5.359-1,9.34-4.33,13.439-6.48
			C313.926,92.298,315.306,91.838,316.596,91.288z M316.116,41.368c0.53-1.63,1.11-3.21,0.96-5.52c-0.05-0.19-0.199-0.28-0.479-0.24
			c-1.12,1.04-2.82,1.5-3.602,2.88C313.716,39.768,314.866,40.618,316.116,41.368z M280.596,38.248c0.648-2.34,1.6-4.88,1.438-6.72
			c-0.54-6.16-9.33-6.01-15.36-7.2c-1.77-0.35-3.59-1.02-5.279-1.2c-4.971-0.53-10.63-0.25-14.4-0.24c-3.229,0.01-7.51,0.37-9.6,1.2
			c-0.26,2.28-1.221,3.98-0.721,6c0.32,1.3,1.851,2.21,2.4,3.84c0.85,2.54,0.35,4.09,0,7.2c2.13,0.77,5.1,0.47,6.24,2.16
			c1.55,2.29,0.359,7.24,0,9.6c-0.33,2.2-0.11,4.64-0.48,6.96c-0.399,2.48-1.12,5.12-1.68,7.68c-0.58,2.63-1.13,5.3-1.68,7.92
			c-0.57,2.75-0.811,5.44-1.2,8.16c-0.39,2.72-1.41,5.6-0.48,8.16c5.16,2.2,11.98,1.91,14.88-0.96c1.961-1.94,1.54-8.04,2.16-12.72
			c0.24-1.84,0.71-3.7,0.96-5.52c0.311-2.18,0.24-4.34,0.48-6.24c0.13-1.07,0.63-1.96,0.72-2.88c0.11-1.15-0.33-2.84-0.24-4.08
			c0.08-1.04,0.561-2.58,0.721-4.08c0.35-3.17,0.8-9.87,2.64-11.28c1.45-1.11,5.21-1.19,7.44-0.96c0.62,0.06,1.02,0.57,1.68,0.72
			c2.3,0.52,4.851,0.31,6.96,0.24C279.326,42.868,279.986,40.458,280.596,38.248z M236.436,40.168c0.319-3.01,0.75-5.2-0.96-7.44
			c-4.721-1.66-9.95-0.28-14.16,0.96c-2.061,0.61-5.44,1.29-6.48,2.64c-0.779,1.02-1.35,4.12-1.68,6c-0.78,4.52-1.32,8.9-0.72,13.68
			c4.899,0.26,5.689,5.32,5.04,10.08c-0.67,4.93-1.86,9.57-3.36,12.96c-0.67,1.51-1.37,3.07-1.92,4.56c-1.26,3.42-3.18,6.2-3.6,8.64
			c1.659,1.53,4.43,0.68,6.96,0.72c1.18,0.02,2.439,0.46,3.6,0.48c1,0.01,2.15-0.38,3.36-0.48c2.609-0.21,4.989-0.66,6.239-2.4
			c0.54-0.75,0.74-2.69,1.2-4.32c1.29-4.64,3.16-9.57,3.84-14.16c0.23-1.54,0.04-3.22,0.24-4.8c0.5-3.96,1.57-7.85,1.92-11.76
			C236.436,50.148,235.946,44.758,236.436,40.168z M213.636,72.568c0.71-3.57,1.64-9.47,0.239-12.96c-3.66-1.47-6.5-0.33-9.359,0.48
			c-1.391,0.39-3.03,0.55-4.32,0.96c-5.38,1.71-9.22,4.71-13.44,7.68c-1.949,1.37-5.149,3.52-7.199,0.72
			c2.619-9.86,8.239-16.87,13.199-24.24c1.301-1.92,2.42-3.78,3.841-5.52c2.819-3.46,5.979-6.51,8.64-10.08
			c1.33-1.79,3.12-3.77,3.12-6.24c-1.44-1.28-3.96-1.75-6.24-1.92c-10.38-0.78-19,1.2-27.12,4.32c-5.74,2.21-11.68,3.47-15.12,7.44
			c0.21,6.91,2.391,11.85,4.32,17.04c1.95,0.21,4.81-0.49,6,0.48c-0.12,3.72-1.31,6.37-2.16,9.36c3.64,7.56,2.57,20.25-0.479,27.6
			c3.869,1.07,7.399,0.1,10.8,0.72c1.09,0.2,2.02,0.83,3.12,0.96c1.09,0.13,2.189-0.14,3.359,0c4.03,0.48,7.11,1.94,10.32,3.12
			c2.29,0.84,5.31,2.16,6.96,1.92c2.98-0.44,5.64-7.47,6.72-9.84c0.83-1.82,1.54-3.89,2.4-6
			C212.136,76.368,213.266,74.458,213.636,72.568z M159.636,95.368c4.979-5.47,8.81-15.47,8.159-24.96
			c-0.46-6.61-2.76-13.75-7.439-17.04c-0.4-0.28-1.271-0.6-1.92-0.96c-1.74-0.95-4.05-2.16-6.24-2.4c-3.59-0.4-4.59,0.86-6.72,1.68
			c-0.78,0.3-1.87,0.61-2.88,0.96c-0.99,0.35-2.23,0.98-2.881,0.96c-1.63-0.04-3.739-2.04-6-1.92c-1.819,0.1-2.659,1.04-4.319,2.16
			c-0.021,2.95,1.21,5.73,3.84,6.72c2.92-1.89,8.74-0.83,9.84,2.16c0.53,1.42,0.59,5.19-1.2,5.52c-1.01,0.18-2.37-1.46-3.84-2.16
			c-3.1-1.48-5.35-0.53-7.68,0.48c-1.221,0.53-2.42,0.85-3.601,1.92c-1.319,2.9-0.75,4.63,0.24,7.44c0.49,1.4,0.771,2.82,1.2,4.08
			c0.9,2.66,3.22,4.54,2.64,8.16c1.811,0.99,3.261,2.91,5.521,3.36c4.149,0.82,7.58-1.82,11.04-1.44c1.22,1.48,0.279,2.24,0.72,4.32
			C151.476,96.148,155.816,95.898,159.636,95.368z M166.836,56.248c0.2-1,0.62-1.78,0.48-3.12c-1.17-0.03-2.53,0.13-3.36-0.24
			C164.836,54.088,165.556,55.448,166.836,56.248z M145.716,48.808c1.131-2.57,1.66-5.52,0.721-8.16c-0.53-1.49-2.48-2.57-3.84-3.36
			c-4.301-2.51-13.471-4.25-18.48-1.44c-1.43,0.8-3.32,4.16-4.8,3.84c-1.71-0.37-0.68-2.1-0.96-3.84c-0.46-2.84-3.2-4.93-6.24-4.56
			c-5.15,0.63-11.09,5.06-13.44,7.68c0.54,2.5,1.95,4.13,2.16,6.96c6.271,6.81,6.61,20.67,4.801,30.96
			c-0.271,1.51-0.45,3.13-0.721,4.32c-0.2,0.88-1.02,1.61-0.96,2.4c0.061,0.79,0.86,1.42,1.44,2.4c1.58,2.65,2.8,5.94,4.56,7.68
			c6.811,0.36,11.311-2.77,15.36-5.28c1.109-0.69,2.76-1.44,2.88-2.4c0.07-0.53-1.09-2.27-1.44-3.12c-0.59-1.4-0.97-3.42-1.68-5.52
			c-0.64-1.9-1.58-3.63-1.92-5.52c-0.5-2.81,0.17-6.8-0.72-8.88c0.67-2.49,0.64-4.81,1.68-6.96c1.26-2.6,5.7-6.33,8.88-6.72
			c3.37-0.42,4.521,1.43,6.96,1.44C141.936,50.738,143.886,48.998,145.716,48.808z M140.676,64.408c-0.039-2.01-3.39-2.54-4.8-1.68
			C137.856,62.918,139.016,63.908,140.676,64.408z M131.796,63.208c-1.72-1.72-3.699-3.18-4.56-5.76
			c-0.311-0.01-0.33-0.31-0.72-0.24c-1.391,1.94-1.37,5.56-0.96,8.64C127.656,64.988,129.476,63.848,131.796,63.208z
			 M103.476,74.968c1.58-9.71,0.21-24.5-5.761-28.56c-2.409-0.54-4.55-3.17-8.399-3.6c-7.36-0.82-17.76,1.85-18.72,5.76
			c-0.421,1.7,1.22,3.63,1.199,6c4.92-2.58,9.561,2.85,7.2,7.44c-4.5-0.18-7.14,1.5-10.8,2.16c-2.29,3.07-6.07,4.65-10.08,6
			c-1.97,4.1-0.89,8.54,0.48,11.52c1.31,2.84,1.739,3.21,3.84,4.56c0.62,0.4,1.14,1.18,1.68,1.44c4.63,2.22,10.67,0.73,13.92-1.2
			c1.43-0.85,2.44-2.03,3.84-2.64c2.7,1.46-0.109,6.02,1.681,8.64c2.71,0.85,7.409,1.52,10.8,1.2c4.77-0.46,5.26-4.97,6.72-9.6
			C102.066,80.958,103.036,77.698,103.476,74.968z M77.076,59.128c-0.53-3.22-4.22-2.75-6-0.96c-0.03,0.69,0.13,1.57-0.24,1.92
			C72.876,60.588,74.996,59.358,77.076,59.128z M68.436,59.368c0.479-1.19,0.79-4.79,0.72-6c-0.04-0.63-0.52-1.29-0.72-2.16
			c-0.21-0.91,0-2.21-0.24-2.88c-0.28-0.78-1.38-1.9-2.16-2.64c-1.85-1.77-4.479-3.07-7.439-3.36
			c-10.431-1.02-21.301,4.4-26.16,9.84c0.43,4.99,2.489,9.45,3.84,13.92c0.41,1.34,0.31,2.79,0.72,4.08
			c0.37,1.17,1.07,2.16,1.44,3.36c2.34,7.51,4.63,14.74,7.2,22.08c4.079,0.58,8.039-0.87,10.8-2.4c-2.681-6.68-5.07-13.65-6.48-21.6
			c0.75-2.24,3.22-2.46,5.28-3.12c2.16-0.69,4.3-1.92,6.479-2.16c2.101-1.45,3.271-2.33,4.801-4.32
			C67.186,61.138,68.136,60.118,68.436,59.368z"/>
		<path fill="#EF5615" d="M353.556,56.968c0.979,1.45,1.56,2.96,0.96,5.52c-0.131,0.55-0.7,1.15-0.96,1.92
			c-0.671,2.03-1.32,4.7-2.881,5.52c-3.069-1.479-9.329-4.46-13.439-2.16c-0.859,0.48-1.34,1.52-2.16,2.16
			c-1.26,4.98-2.62,10.41-1.92,15.6c0.3,2.22,0.25,4.81,0.24,7.68c-2.11,3.88-12.45,2.86-15.12,0.24c0.58-1.48,1.72-2.22,2.399-3.36
			c3.439-5.76,5.899-12.22,5.521-20.88c-0.16-3.68-0.75-8.05-1.68-11.52c-0.641-2.38-2.91-5.21,0.96-6
			c2.63,2.41,1.859,8.22,4.8,10.32c2.93-1.4,3.74-4.67,6.96-6.48c2.021-1.14,6.149-1.82,9.359-1.68
			C349.516,53.968,352.206,54.948,353.556,56.968z"/>
		<path fill="#48BF4C" d="M335.796,80.968c6.869,0.45,11.08,5.8,10.319,13.92c-0.38,4.12-5.25,10.02-8.399,11.76
			c-1.34,0.74-2.609,0.55-3.84,1.439c-2.109-0.49-1.989-0.029-3.841,0.48c-0.58,4.64-0.148,9.01-2.64,13.199
			c-0.53,0.891-1.49,1.771-2.16,2.641c-2.47,3.199-4.71,5.81-9.12,7.439c-2.279,0.84-3.979,0.83-6.72,0.721
			c-2.58,2.39-4.29,6.25-8.16,8.16c-0.75,0.369-1.92,0.609-2.88,0.959c-5.19,1.891-12.25,1.86-17.28-1.68
			c-2.41-3.71-7.1-7.56-5.04-14.16c-1.93-1.55-4.54-2.729-5.04-6.24c-0.188-1.359,0.08-3.209,0-5.039
			c-0.148-3.48-0.95-6.15-0.479-9.12c-1.71-0.61-2.86,1.04-5.28,0.479c-1.82-1.21-1.75-3.85-3.84-4.32
			c-1.931-0.439-4.32,0.711-5.04,2.4c-1.08,2.54,0.14,7.26-1.2,10.08c-0.96,2.03-3.16,3.141-5.76,1.92
			c-0.391-1.29,0.62-3.02,0.479-4.8c-0.17-2.069-1.45-4.351-3.12-4.56c-1.699-0.221-3.609,1.529-5.04,1.68
			c-2.27,0.24-5.34-0.68-8.159-1.439c-2.761-0.75-5.301-1.091-7.2-2.4c-1.69-1.16-2.12-4.141-5.28-2.4
			c-0.8,0.439-0.55,1.16-1.44,1.2c-2.039,0.101-3.09-3.29-4.56-3.36c-1.44-0.06-2.94,2.25-3.6,4.08
			c-1.431,3.96-1.521,10.36-1.2,13.68c0.09,0.951,0.55,1.82,0.72,2.881c0.57,3.68,0.44,8.09,1.44,12.24
			c0.33,1.379,1.029,2.359,1.199,4.08c0.431,4.5-0.359,12.369-2.399,15.119c-1.23,1.65-3.57,2.74-6.48,1.92
			c-2.92-7.34,3.551-14.689,2.4-23.52c-0.24-1.86-1.14-4.73-1.92-6.721c-0.86-2.18-2.89-6.819-5.04-6.479
			c-1.08,0.17-1.58,1.91-2.4,3.12c-1.81,2.66-3.489,4.32-8.399,4.08c-1.471,1.38-1.431,3.31-2.88,4.32
			c-1.351,0.939-3.83,1.33-5.04,1.439c-12.87,1.12-20.03-12.029-26.4-18c-6.1,1.26-11.85-1.01-15.12-4.08
			c-2.229-3.77-2.43-8.49-4.56-12c-0.36-0.09-0.67-0.13-0.96-0.13l0.989-2.45c1.7,0.48,3.69,0.69,5.971,0.42
			c1.399-0.16,2.68-1.02,4.08-0.96c0.06,1.22-0.03,2.95,0.96,3.841c0.66,0.59,1.95,0.289,3.6,0.719c0.87,0.23,1.54,0.891,2.16,0.961
			c1.35,0.16,6.96,0.07,8.4-0.48c2.38-0.92,3.239-4.68,4.8-6.24c1.91,0.41,2.92-0.75,4.319-0.96c4.65-0.69,8.841,0.54,13.921,0.96
			c1.97,0.16,4.26,1.01,6,1.44c0.739,0.18,1.609,0.06,2.159,0.24c1.681,0.54,3.25,1.62,4.801,2.16
			c3.859,1.34,7.479,2.201,10.56-0.72c2.2,1.59,5.39,0.73,9.6,0.96c0.75,0.04,1.471,0.44,2.16,0.48c4.67,0.3,8.16-1.38,11.04-2.64
			c1.9-1.92,2.25-3.99,3.12-7.44c0.92-3.62,2.05-8.08,2.88-12.48c1.09-5.82,2.19-12.2,2.641-18c0.279-3.62,0-7.78,0.479-11.04
			c0-0.24,0-0.48,0-0.72c1.61-0.09,3.021,0.02,4.08,0.48c1.14,3.15-0.05,6.29-0.479,9.36c-0.28,1.99-0.11,4.21-0.48,6.48
			c-0.73,4.51-2.07,9.15-3.12,13.92c-0.62,2.83-1.13,6.96-1.68,10.32c-0.46,2.81-1.13,6.3-0.72,7.68c0.39,1.32,3.01,3,4.56,3.36
			c1.53,0.35,4.47,0.48,6.24,0.48c3.239,0,6.609-1.65,8.88-3.12c6.35,4.591,15.14,7.7,25.2,9.36c2.92,0.48,5.26,1.41,8.64,1.439
			c1.37,0.01,2.99-0.379,4.561-0.479c2.939-0.19,5.75-0.261,9.12-1.2c1.109-0.311,2.46-1.07,3.601-1.68
			c2.85-1.53,5.88-3.051,8.399-5.04c4.46,3.47,15.101,4.239,19.681,0.24C336.666,91.808,335.156,85.538,335.796,80.968z"/>
		<path d="M331.476,158.248c0.13,3.71-4.851,6.84-8.4,6.72c-2.479-0.079-5.1-1.95-5.76-3.6c-0.891-2.21,0.03-5.601,1.2-6.96
			c1.14-1.32,3.34-1.99,5.279-2.16C326.706,151.998,331.346,154.357,331.476,158.248z M319.716,160.168
			c1.341,3.91,9.229,2.25,9.12-1.68c-0.069-2.37-3.239-3.86-4.801-3.84C320.966,154.688,318.656,157.059,319.716,160.168z"/>
		<path fill="#EF5615" d="M328.836,158.488c0.109,3.93-7.779,5.59-9.12,1.68c-1.061-3.109,1.25-5.48,4.319-5.52
			C325.596,154.628,328.766,156.118,328.836,158.488z"/>
		<path fill="#D3A6D4" d="M323.556,67.048c1.17,9.47-2.41,17.99-6.96,24.24c-1.29,0.55-2.671,1.01-2.881,2.64
			c-4.101,2.15-8.079,5.48-13.439,6.48c-8.21,1.54-17.84,0.29-24.96-1.68c-6.54-1.811-13.16-4.511-17.28-8.4
			c0.811-2.44,0.5-4.97,0.72-7.68c0.49-6.01,2.16-12.38,2.641-18.72c0.14-1.84-0.141-3.7,0-5.52c0.16-2.16,0.67-4.53,0.96-6.72
			c0.3-2.23,0.59-4.3,1.92-5.76c5.14-1.26,10.22,1.86,14.399,0.72c3.58-0.98,3.461-5.04,4.801-8.64c0.109-0.91,1.13,0.05,1.92-0.48
			c2.08-0.88,4.819-1.66,6.96-1.92c3.55-0.43,6.75,0.24,9.84,0.96c4.271,0.99,6.061,1.74,9.12,4.32c4.29,3.62,7.521,8.41,9.6,14.64
			c0.48,1.45,1.15,2.88,1.44,4.08c0.359,1.53,0.21,3.28,0.479,4.8C322.996,65.318,323.456,66.238,323.556,67.048z M312.036,72.808
			c2.69-8.62-4.84-15.06-12.239-14.16c-5.311,0.65-8.189,5.72-9.601,10.08c-0.41,1.28-0.939,3.06-0.96,4.08
			c-0.061,3,2.12,7.4,4.08,8.4c1.7,0.87,7.68,1.44,10.08,0.96c0.899-0.18,1.66-0.89,2.64-1.44c0.99-0.55,2.141-0.93,2.641-1.44
			C309.656,78.298,311.316,75.128,312.036,72.808z M285.396,74.728c1.42-2.6,2.47-6.53,2.16-9.36c-0.271-2.42-1.771-5.35-4.08-6.72
			c-1.312-0.77-3.25-0.84-4.801-1.2c-1.511-0.35-3.069-1.19-4.8-1.2c-4.661-0.01-9.431,3.77-11.041,6.48
			c-1.739,2.92-1.819,6.26-1.68,10.32c0.6,0.68,0.95,1.61,1.2,2.64c2.149,1.48,3.24,3.34,5.04,4.56c2.97,2.02,8.91,2.21,12.72,0
			C281.866,79.228,284.556,76.268,285.396,74.728z"/>
		<path fill="#FFFFFF" d="M317.076,35.848c0.15,2.31-0.43,3.89-0.96,5.52c-1.25-0.75-2.399-1.6-3.12-2.88
			c0.78-1.38,2.48-1.84,3.602-2.88C316.876,35.568,317.026,35.658,317.076,35.848z"/>
		<path d="M299.796,58.648c7.399-0.9,14.931,5.54,12.239,14.16c-0.72,2.32-2.38,5.49-3.359,6.48c-0.5,0.51-1.649,0.89-2.641,1.44
			c-0.979,0.55-1.739,1.26-2.64,1.44c-2.4,0.48-8.38-0.09-10.08-0.96c-1.96-1-4.141-5.4-4.08-8.4c0.021-1.02,0.55-2.8,0.96-4.08
			C291.606,64.368,294.486,59.298,299.796,58.648z M309.876,71.848c1.13-4.54-0.899-6.61-3.12-8.4c-2.25-1.81-3.619-2.96-7.439-2.16
			c-0.15,0.03-0.33-0.04-0.479,0c-1.239,0.38-3.761,2.34-4.319,3.12c-2.29,3.17-3.74,11.64-0.24,14.16
			c0.729,0.53,2.01,0.56,3.36,0.72c1.38,0.17,3.02,0.47,3.84,0.48c1.62,0.01,4.21-1.2,5.04-1.92
			C307.626,76.878,309.396,73.778,309.876,71.848z"/>
		<path fill="#FFFFFF" d="M306.756,63.448c2.221,1.79,4.25,3.86,3.12,8.4c-0.479,1.93-2.25,5.03-3.359,6
			c-0.83,0.72-3.42,1.93-5.04,1.92c-0.82-0.01-2.46-0.31-3.84-0.48c-1.352-0.16-2.631-0.19-3.36-0.72
			c-3.5-2.52-2.05-10.99,0.24-14.16c0.56-0.78,3.08-2.74,4.319-3.12c0.149-0.04,0.329,0.03,0.479,0
			C303.135,60.488,304.506,61.638,306.756,63.448z M305.316,74.248c1.061-3.96-1.229-6.68-4.08-8.4c-1.12,0.16-2.87-0.31-3.6,0.24
			c-3.82,0.54-4.91,7.3-2.4,10.08C297.566,78.758,304.316,78.028,305.316,74.248z"/>
		<path d="M301.236,65.848c2.851,1.72,5.141,4.44,4.08,8.4c-1,3.78-7.75,4.51-10.08,1.92c-2.51-2.78-1.42-9.54,2.399-10.08
			C298.366,65.538,300.116,66.008,301.236,65.848z M300.756,71.848c0.159-0.96,0.521-1.72,0.479-2.88
			c-1.979-2.01-5.351,0.7-4.8,2.64C296.926,73.328,299.376,72.858,300.756,71.848z"/>
		<path fill="#FFFFFF" d="M301.236,68.968c0.04,1.16-0.32,1.92-0.479,2.88c-1.38,1.01-3.83,1.48-4.319-0.24
			C295.885,69.668,299.256,66.958,301.236,68.968z"/>
		<path d="M287.556,65.368c0.31,2.83-0.74,6.76-2.16,9.36c-0.84,1.54-3.53,4.5-5.28,5.52c-3.81,2.21-9.75,2.02-12.72,0
			c-1.8-1.22-2.891-3.08-5.04-4.56c-0.25-1.03-0.601-1.96-1.2-2.64c-0.14-4.06-0.06-7.4,1.68-10.32c1.61-2.71,6.38-6.49,11.041-6.48
			c1.729,0.01,3.289,0.85,4.8,1.2c1.551,0.36,3.489,0.43,4.801,1.2C285.786,60.018,287.286,62.948,287.556,65.368z M283.476,73.048
			c2.029-4.09,2.09-8.53-0.48-11.52c-3.199-1.28-7.18-3.06-11.279-2.64c-2.35,0.64-6.35,3.57-7.199,5.28
			c-0.721,1.46-1.391,5.51-0.96,7.68c0.47,2.36,2.109,3.13,3.6,4.56c1.18,1.13,1.9,2.25,3.12,2.64c2.36,0.75,6.71,0.1,8.64-0.96
			C280.316,77.318,282.526,74.968,283.476,73.048z"/>
		<path fill="#FFFFFF" d="M282.996,61.528c2.57,2.99,2.511,7.43,0.48,11.52c-0.95,1.92-3.16,4.27-4.562,5.04
			c-1.93,1.06-6.278,1.71-8.64,0.96c-1.22-0.39-1.94-1.51-3.12-2.64c-1.49-1.43-3.13-2.2-3.6-4.56c-0.431-2.17,0.239-6.22,0.96-7.68
			c0.85-1.71,4.85-4.64,7.199-5.28C275.816,58.468,279.796,60.248,282.996,61.528z M277.476,70.888c0.76-3.94-2.471-7.85-4.562-8.4
			c-0.688-0.18-1.31,0.16-1.92,0.24c-3.54,0.49-5.75,2.4-6,5.76c-0.28,3.86,2.561,6.65,4.561,7.2
			C272.846,76.598,276.836,74.198,277.476,70.888z"/>
		<path fill="#EF5615" d="M282.036,31.528c0.16,1.84-0.79,4.38-1.438,6.72c-0.61,2.21-1.271,4.62-2.4,5.76
			c-2.109,0.07-4.66,0.28-6.96-0.24c-0.66-0.15-1.06-0.66-1.68-0.72c-2.23-0.23-5.99-0.15-7.44,0.96
			c-1.84,1.41-2.29,8.11-2.64,11.28c-0.16,1.5-0.641,3.04-0.721,4.08c-0.09,1.24,0.351,2.93,0.24,4.08
			c-0.09,0.92-0.59,1.81-0.72,2.88c-0.24,1.9-0.17,4.06-0.48,6.24c-0.25,1.82-0.72,3.68-0.96,5.52
			c-0.62,4.68-0.199,10.78-2.16,12.72c-2.899,2.87-9.72,3.16-14.88,0.96c-0.93-2.56,0.091-5.44,0.48-8.16
			c0.39-2.72,0.63-5.41,1.2-8.16c0.55-2.62,1.1-5.29,1.68-7.92c0.56-2.56,1.28-5.2,1.68-7.68c0.37-2.32,0.15-4.76,0.48-6.96
			c0.359-2.36,1.55-7.31,0-9.6c-1.141-1.69-4.11-1.39-6.24-2.16c0.35-3.11,0.85-4.66,0-7.2c-0.55-1.63-2.08-2.54-2.4-3.84
			c-0.5-2.02,0.461-3.72,0.721-6c2.09-0.83,6.37-1.19,9.6-1.2c3.771-0.01,9.43-0.29,14.4,0.24c1.689,0.18,3.51,0.85,5.279,1.2
			C272.706,25.518,281.496,25.368,282.036,31.528z"/>
		<path d="M272.916,62.488c2.091,0.55,5.32,4.46,4.562,8.4c-0.641,3.31-4.63,5.71-7.92,4.8c-2-0.55-4.841-3.34-4.561-7.2
			c0.25-3.36,2.46-5.271,6-5.76C271.606,62.648,272.226,62.308,272.916,62.488z M274.596,67.768c-0.421-3.85-6.311-2.91-6,0
			C268.866,70.288,273.686,69.738,274.596,67.768z"/>
		<path fill="#FFFFFF" d="M268.596,67.768c-0.311-2.91,5.579-3.85,6,0C273.686,69.738,268.866,70.288,268.596,67.768z"/>
		<path fill="#EF5615" d="M235.476,32.728c1.71,2.24,1.279,4.43,0.96,7.44c-0.49,4.59,0,9.98-0.48,15.36
			c-0.35,3.91-1.42,7.8-1.92,11.76c-0.2,1.58-0.01,3.26-0.24,4.8c-0.68,4.59-2.55,9.52-3.84,14.16c-0.46,1.63-0.66,3.57-1.2,4.32
			c-1.25,1.74-3.63,2.19-6.239,2.4c-1.21,0.1-2.36,0.49-3.36,0.48c-1.16-0.02-2.42-0.46-3.6-0.48c-2.53-0.04-5.301,0.81-6.96-0.72
			c0.42-2.44,2.34-5.22,3.6-8.64c0.55-1.49,1.25-3.05,1.92-4.56c1.5-3.39,2.69-8.03,3.36-12.96c0.649-4.76-0.141-9.82-5.04-10.08
			c-0.601-4.78-0.061-9.16,0.72-13.68c0.33-1.88,0.9-4.98,1.68-6c1.04-1.35,4.42-2.03,6.48-2.64
			C225.526,32.448,230.756,31.068,235.476,32.728z"/>
		<path d="M234.036,127.768c1.2,0.871,2.561,4.16,1.92,6c-1.42,4.09-8.79,3.021-9.6-0.72c-0.721-3.319,1.189-5.479,4.8-5.76
			C232.096,127.218,233.176,127.148,234.036,127.768z M233.556,132.809c0.67-2.301-2.95-4.48-4.561-1.92
			C228.286,134.277,232.936,134.908,233.556,132.809z"/>
		<path d="M234.036,12.568c0.4,2.41,1.69,3.39,1.68,5.76c-0.04,11.05-20.109,8.73-16.56-2.4
			C220.596,11.408,228.756,8.468,234.036,12.568z M228.276,23.128c3.35-0.24,6.5-4.51,3.84-7.44c-1.06-0.38-1.29-1.59-2.16-2.16
			c-3.72-1.46-7.33,0.55-8.16,3.12C220.396,20.988,225.146,23.358,228.276,23.128z"/>
		<path fill="#EF5615" d="M228.996,130.889c1.61-2.561,5.23-0.381,4.561,1.92C232.936,134.908,228.286,134.277,228.996,130.889z"/>
		<path fill="#EF5615" d="M232.116,15.688c2.66,2.93-0.49,7.2-3.84,7.44c-3.13,0.23-7.88-2.14-6.48-6.48
			c0.83-2.57,4.44-4.58,8.16-3.12C230.826,14.098,231.056,15.308,232.116,15.688z"/>
		<path fill="#EF5615" d="M213.876,59.608c1.4,3.49,0.471,9.39-0.239,12.96c-0.37,1.89-1.5,3.8-2.4,6c-0.86,2.11-1.57,4.18-2.4,6
			c-1.08,2.37-3.739,9.4-6.72,9.84c-1.65,0.24-4.67-1.08-6.96-1.92c-3.21-1.18-6.29-2.64-10.32-3.12c-1.17-0.14-2.27,0.13-3.359,0
			c-1.101-0.13-2.03-0.76-3.12-0.96c-3.4-0.62-6.931,0.35-10.8-0.72c3.05-7.35,4.119-20.04,0.479-27.6
			c0.851-2.99,2.04-5.64,2.16-9.36c-1.19-0.97-4.05-0.27-6-0.48c-1.93-5.19-4.11-10.13-4.32-17.04c3.44-3.97,9.38-5.23,15.12-7.44
			c8.12-3.12,16.74-5.1,27.12-4.32c2.28,0.17,4.8,0.64,6.24,1.92c0,2.47-1.79,4.45-3.12,6.24c-2.66,3.57-5.82,6.62-8.64,10.08
			c-1.421,1.74-2.54,3.6-3.841,5.52c-4.96,7.37-10.58,14.38-13.199,24.24c2.05,2.8,5.25,0.65,7.199-0.72
			c4.221-2.97,8.061-5.97,13.44-7.68c1.29-0.41,2.93-0.57,4.32-0.96C207.376,59.278,210.216,58.138,213.876,59.608z"/>
		<path d="M167.316,140.008c1.149,1.42,1.39,3.73,1.439,6.24c-2.17,5.12-11.04,4.439-11.04-1.439c0-2.291,2.351-5.531,4.801-5.761
			C164.176,138.898,165.586,140.298,167.316,140.008z M166.116,145.768c-0.08-1.529-0.08-2.92-0.96-3.6
			c-1.75-1.34-4.88,0.04-5.04,1.92C159.876,146.988,164.736,148.758,166.116,145.768z"/>
		<path fill="#EF5615" d="M167.796,70.408c0.65,9.49-3.18,19.49-8.159,24.96c-3.82,0.53-8.16,0.78-11.521-0.96
			c-0.44-2.08,0.5-2.84-0.72-4.32c-3.46-0.38-6.891,2.26-11.04,1.44c-2.26-0.45-3.71-2.37-5.521-3.36c0.58-3.62-1.739-5.5-2.64-8.16
			c-0.43-1.26-0.71-2.68-1.2-4.08c-0.99-2.81-1.56-4.54-0.24-7.44c1.181-1.07,2.381-1.39,3.601-1.92c2.33-1.01,4.58-1.96,7.68-0.48
			c1.47,0.7,2.83,2.34,3.84,2.16c1.79-0.33,1.73-4.1,1.2-5.52c-1.1-2.99-6.92-4.05-9.84-2.16c-2.63-0.99-3.86-3.77-3.84-6.72
			c1.66-1.12,2.5-2.06,4.319-2.16c2.261-0.12,4.37,1.88,6,1.92c0.65,0.02,1.891-0.61,2.881-0.96c1.01-0.35,2.1-0.66,2.88-0.96
			c2.13-0.82,3.13-2.08,6.72-1.68c2.19,0.24,4.5,1.45,6.24,2.4c0.649,0.36,1.52,0.68,1.92,0.96
			C165.036,56.658,167.336,63.798,167.796,70.408z M140.676,79.768c1-1.35,0.15-4-0.72-4.8c-0.689-0.63-2.58-1.26-4.56-0.96
			c-1.94,0.3-5.33,2.27-4.561,5.28c0.11,0.43,1.21,1.67,1.92,1.92C134.406,81.798,139.746,81.028,140.676,79.768z"/>
		<path fill="#EF5615" d="M165.156,142.168c0.88,0.68,0.88,2.07,0.96,3.6c-1.38,2.99-6.24,1.221-6-1.68
			C160.276,142.208,163.406,140.828,165.156,142.168z"/>
		<path fill="#EF5615" d="M146.436,40.648c0.939,2.64,0.41,5.59-0.721,8.16c-1.829,0.19-3.779,1.93-5.76,1.92
			c-2.439-0.01-3.59-1.86-6.96-1.44c-3.18,0.39-7.62,4.12-8.88,6.72c-1.04,2.15-1.01,4.47-1.68,6.96c0.89,2.08,0.22,6.07,0.72,8.88
			c0.34,1.89,1.28,3.62,1.92,5.52c0.71,2.1,1.09,4.12,1.68,5.52c0.351,0.85,1.511,2.59,1.44,3.12c-0.12,0.96-1.771,1.71-2.88,2.4
			c-4.05,2.51-8.55,5.64-15.36,5.28c-1.76-1.74-2.979-5.03-4.56-7.68c-0.58-0.98-1.38-1.61-1.44-2.4c-0.06-0.79,0.76-1.52,0.96-2.4
			c0.271-1.19,0.45-2.81,0.721-4.32c1.81-10.29,1.47-24.15-4.801-30.96c-0.21-2.83-1.62-4.46-2.16-6.96
			c2.351-2.62,8.29-7.05,13.44-7.68c3.04-0.37,5.78,1.72,6.24,4.56c0.28,1.74-0.75,3.47,0.96,3.84c1.479,0.32,3.37-3.04,4.8-3.84
			c5.01-2.81,14.18-1.07,18.48,1.44C143.956,38.078,145.906,39.158,146.436,40.648z"/>
		<path d="M139.956,74.968c0.87,0.8,1.72,3.45,0.72,4.8c-0.93,1.26-6.27,2.03-7.92,1.44c-0.71-0.25-1.81-1.49-1.92-1.92
			c-0.77-3.01,2.62-4.98,4.561-5.28C137.376,73.708,139.266,74.338,139.956,74.968z M138.516,78.328c0-0.48,0-0.96,0-1.44
			c-1.58-1.31-5.19-0.84-5.04,1.68C134.656,79.298,136.976,78.638,138.516,78.328z"/>
		<path fill="#48BF4C" d="M135.426,93.508l-0.989,2.45c-1.59,0-2.2,1.17-3.601,1.09c-1.779-0.1-2.41-2.43-4.319-2.64
			c-1.71-0.18-3.15,1.13-3.841,2.16c-1.8,2.689-1.67,8.359-1.439,12.479c0.06,1.14,0.56,2.39,0.479,3.36
			c-0.109,1.34-1.409,4.09-2.88,5.04c-2,1.3-5.529,1.069-6-1.921c-0.189-1.219,0.61-2.159,0.721-3.359
			c0.33-3.609-0.36-7.21-2.16-9.359c-1.36-0.16-1.78,1.18-3.12,1.439c-1.37,0.27-2.68-0.561-4.08,0c-1.55,3.62-2.14,7.279-5.28,9.6
			c-0.45,0.33-1.05,0.33-1.68,0.721c-0.97,0.609-2.96,2.32-4.32,2.88c-3,1.239-8.45,1.819-13.2,1.44
			c-2.72-0.221-3.939-1.32-6.479-2.641c-3.29-1.71-6.521-3.17-7.2-7.2c-2.78,1.37-8.54,4.16-11.52,0.96
			c-0.21-3.439-0.931-6.65-3.841-6.72c-2.239-0.06-2.909,2.01-4.319,3.601c-1.23,6.93-0.99,17.949-2.16,26.159
			c-0.14,1-0.08,2.08-0.24,2.88c-0.56,2.85-2.91,7.44-5.52,8.16c-1.42,0.391-2.87-0.12-4.32-0.24c-2.93-3.43-1.12-8.05-0.24-12.24
			c0.86-4.08,1.601-8.799,1.92-13.199c0.21-2.85,0.45-6.04,0.24-8.881c-0.31-4.199-1.27-9.989-4.32-11.52
			c-1.08-0.54-2.3-0.359-3.119-0.72c-1.4-0.62-3.061-1.97-3.36-3.12c-0.68-2.57,1.29-4.47,1.439-6.96
			c-0.529-0.99-2.26-0.78-3.359-1.2c-0.8-0.87-1.5-1.86-2.16-2.88c0.09-1.68-0.14-3.29,0.24-4.8c1.239-4.96,6.68-10.42,12-10.8
			c1.149,0.57,1.12,2.12,1.439,3.12c2.38,7.48,4.94,16.55,8.16,23.76c0.18,1.14-0.27,1.65-0.24,2.64
			c0.88,0.761,2.53,1.431,4.08,1.44c0.99,0,2.07-0.62,3.601-0.961c2.04-0.459,4.31-0.469,5.52-0.959c0.8-0.32,2.93-1.89,3.12-2.64
			c0.37-1.48-1.1-4.04-1.92-6c-1.62-3.88-2.44-7.29-3.6-12c-0.381-1.54-1.73-4.8,1.439-4.8c-0.75,6.3,0.05,11.63,3.36,15.36
			c1.51,1.7,4.91,3.91,7.439,4.56c5.021,1.29,10.2-0.39,14.4-2.4c0.479,1.9,0.1,3.94,1.439,5.28c1.69,1.69,4.841,1.8,8.641,1.92
			c3.29,0.11,6.64,0.42,8.64-0.96c2.92-2.01,2.25-5.42,4.08-7.92c2.21,2.83,3.22,6.86,6,9.12c9.23,0.59,13.61-3.67,19.44-6.48
			c1.21,0.1,1.96,1.4,3.12,2.16C132.606,92.448,133.896,93.088,135.426,93.508z"/>
		<path d="M104.196,149.128c0.97,1.37,0.59,3.11,0.24,5.04c-2.721,1.03-6.29-1.76-6.96,1.68c-0.24,1.211,0.989,2.471,0.72,3.84
			c-0.17,0.86-1.32,1.961-2.16,2.16c-1.96,0.461-4.17-1.08-5.76-1.68c-2.79,2.24-1.09,6.01-0.72,9.359
			c0.369,3.361,0.25,8.44-1.681,11.281c-1.83,2.689-6.939,3.049-7.439-1.681c-0.25-2.33,0.35-6.68,1.199-9.601
			c0.461-1.579,1.881-5.31,0.961-7.92c-0.601-1.699-2.99-4.239-6.48-3.84c-3.56,0.41-3.9,5.48-8.4,4.32
			c-1.35-1.3-1.34-2.9-1.199-3.84c0.279-1.971,2.619-3.66,4.319-4.8c1.16-0.78,2.29-0.94,2.4-1.921c0.149-1.31-2.08-2.449-2.4-3.6
			c-1.029-3.74,2.511-4.84,5.04-5.279c-0.439-1.641-1.569-2.59-2.88-3.36c-0.47-1.931-1.79-3.011-1.439-5.761
			c0.85-0.579,0.899-1.469,1.68-1.68c3.68-1.01,4.72,4.24,6.96,5.28c1.91-0.69,0.81-2.76,1.439-4.08
			c0.41-0.86,1.69-2.12,2.881-2.159c2.659-0.101,2.739,3.56,4.8,4.079c2.34,0.591,3.95-1.29,5.04-3.12
			c1.319-0.84,2.649-1.67,3.359-3.119c1.44-0.25,2.44-1.371,4.08-0.721c2.38,3.28,0.16,4.76-1.68,6.96
			c-0.91,1.091-2.4,2.921-2.4,3.841c0,1.64,2.65,3.149,3.12,5.039c0.261,1.061,0.021,1.75,0,3.36
			C101.796,148.288,103.316,147.889,104.196,149.128z M99.396,151.527c1.189-0.119,2.64,1.08,3.12,0
			c-0.561-2.379-1.54-0.68-2.88-1.68c-1.811-1.35-0.511-2.81-1.2-5.52c-0.34-1.33-1.71-2.32-2.471-3.35
			c-0.18-0.24-0.319-0.48-0.409-0.73c-0.08-3.67,2.09-5.561,3.6-7.439c0.69-0.86,2.05-1.511,0.96-2.641
			c-3.57,0.66-4.99,6.17-8.64,6.96c-1.601,0.351-3.46,0.06-4.32-0.479c-1.27-0.801-0.91-3.371-3.12-3.601
			c-1.33,0.63-0.32,2.351-0.479,3.841c-0.78,1.379-1.971,2.379-3.36,2.399c-3.35,0.06-3.56-4.78-6.48-5.28
			c0.03,4.69,4.69,4.75,4.801,9.36l-0.24,0.96c-1.19,0.64-4.84,0.199-5.28,1.92c-0.39,1.51,2.16,2.59,2.4,4.08
			c0.939,5.97-8.16,4.199-6.721,9.6c3.891-1.13,4.101-4.42,8.16-4.56c3.23-0.11,6.53,2.29,7.44,4.56
			c1.99,4.961-0.95,10.66-1.44,14.881c-0.34,2.959-0.64,5.83,1.44,5.76c0.85-0.03,2.41-2.11,2.88-4.561
			c0.63-3.27-0.5-6.91-0.72-9.84c-0.24-3.15,0.399-6.279,1.68-7.439c2.78-2.521,4.16,1.06,7.44,0.479
			C94.046,155.559,96.066,151.857,99.396,151.527z"/>
		<path fill="#EF5615" d="M97.716,46.408c5.971,4.06,7.341,18.85,5.761,28.56c-0.44,2.73-1.41,5.99-2.4,9.12
			c-1.46,4.63-1.95,9.14-6.72,9.6c-3.391,0.32-8.09-0.35-10.8-1.2c-1.79-2.62,1.02-7.18-1.681-8.64c-1.399,0.61-2.41,1.79-3.84,2.64
			c-3.25,1.93-9.29,3.42-13.92,1.2c-0.54-0.26-1.06-1.04-1.68-1.44c-2.101-1.35-2.53-1.72-3.84-4.56
			c-1.37-2.98-2.45-7.42-0.48-11.52c4.01-1.35,7.79-2.93,10.08-6c3.66-0.66,6.3-2.34,10.8-2.16c2.36-4.59-2.28-10.02-7.2-7.44
			c0.021-2.37-1.62-4.3-1.199-6c0.96-3.91,11.359-6.58,18.72-5.76C93.166,43.238,95.306,45.868,97.716,46.408z M74.916,75.928
			c0.971-1.46,0.681-3.67,0-5.28c-4.279-1.98-9.899,0.69-10.319,4.56c-0.21,1.96,1.27,5.03,3.359,5.04
			c1.83,0.01,2.61-2.11,4.08-3.12C72.966,76.488,73.766,76.528,74.916,75.928z"/>
		<path fill="#48BF4C" d="M102.516,151.527c-0.48,1.08-1.931-0.119-3.12,0c-3.33,0.33-5.351,4.031-3.84,7.681
			c-3.28,0.58-4.66-3-7.44-0.479c-1.28,1.16-1.92,4.289-1.68,7.439c0.22,2.93,1.35,6.57,0.72,9.84c-0.47,2.45-2.03,4.53-2.88,4.561
			c-2.08,0.07-1.78-2.801-1.44-5.76c0.49-4.221,3.431-9.92,1.44-14.881c-0.91-2.27-4.21-4.67-7.44-4.56
			c-4.06,0.14-4.27,3.43-8.16,4.56c-1.439-5.4,7.66-3.63,6.721-9.6c-0.24-1.49-2.79-2.57-2.4-4.08c0.44-1.721,4.09-1.28,5.28-1.92
			c-3.44,7.77,5.38,16.5,13.2,11.279c4.6-3.069,6.79-9.949,3.859-14.229l0.63-0.399c0.761,1.029,2.131,2.02,2.471,3.35
			c0.689,2.71-0.61,4.17,1.199,5.52C100.976,150.848,101.956,149.148,102.516,151.527z"/>
		<path fill="#48BF4C" d="M100.116,130.168c1.09,1.13-0.27,1.78-0.96,2.641c-1.51,1.879-3.68,3.77-3.6,7.439
			c0.09,0.25,0.229,0.49,0.409,0.73l-0.63,0.399c-0.92-1.33-2.34-2.41-4.34-3.05c-5.75,0.09-9.71,1.97-12.479,5.04
			c-0.11-4.61-4.771-4.67-4.801-9.36c2.921,0.5,3.131,5.34,6.48,5.28c1.39-0.021,2.58-1.021,3.36-2.399
			c0.159-1.49-0.851-3.211,0.479-3.841c2.21,0.229,1.851,2.8,3.12,3.601c0.86,0.539,2.72,0.83,4.32,0.479
			C95.126,136.338,96.546,130.828,100.116,130.168z"/>
		<path d="M95.336,141.378c2.931,4.28,0.74,11.16-3.859,14.229c-7.82,5.221-16.641-3.51-13.2-11.279l0.24-0.96
			c2.77-3.07,6.729-4.95,12.479-5.04C92.996,138.968,94.416,140.048,95.336,141.378z M93.396,150.088
			c2.55-4.34,0.17-9.779-5.28-9.359c-3.47,0.27-7.16,2.51-7.92,4.319c-0.28,0.67-0.55,2.67-0.48,3.601
			c0.351,4.58,5.98,6.939,9.601,5.52C90.596,153.668,92.656,151.357,93.396,150.088z"/>
		<path fill="#EF5615" d="M88.116,140.729c5.45-0.42,7.83,5.02,5.28,9.359c-0.74,1.27-2.8,3.58-4.08,4.08
			c-3.62,1.42-9.25-0.939-9.601-5.52c-0.069-0.931,0.2-2.931,0.48-3.601C80.956,143.238,84.646,140.998,88.116,140.729z"/>
		<path d="M74.916,70.648c0.681,1.61,0.971,3.82,0,5.28c-1.149,0.6-1.95,0.56-2.88,1.2c-1.47,1.01-2.25,3.13-4.08,3.12
			c-2.09-0.01-3.569-3.08-3.359-5.04C65.016,71.338,70.636,68.668,74.916,70.648z M72.996,74.008c0-0.56,0-1.12,0-1.68
			c-2.899-0.7-7.75,2.36-5.04,5.04C69.566,76.178,70.896,74.708,72.996,74.008z"/>
		<path fill="#EF5615" d="M69.156,53.368c0.07,1.21-0.24,4.81-0.72,6c-0.3,0.75-1.25,1.77-1.92,2.64c-1.53,1.99-2.7,2.87-4.801,4.32
			c-2.18,0.24-4.319,1.47-6.479,2.16c-2.061,0.66-4.53,0.88-5.28,3.12c1.41,7.95,3.8,14.92,6.48,21.6
			c-2.761,1.53-6.721,2.98-10.8,2.4c-2.57-7.34-4.86-14.57-7.2-22.08c-0.37-1.2-1.07-2.19-1.44-3.36c-0.41-1.29-0.31-2.74-0.72-4.08
			c-1.351-4.47-3.41-8.93-3.84-13.92c4.859-5.44,15.729-10.86,26.16-9.84c2.96,0.29,5.59,1.59,7.439,3.36
			c0.78,0.74,1.88,1.86,2.16,2.64c0.24,0.67,0.03,1.97,0.24,2.88C68.636,52.078,69.116,52.738,69.156,53.368z M47.796,60.568
			c8.301,1.14,12.65-7.17,6.24-11.28c-3.55-0.39-7.02-0.02-9.36,1.92c-0.609,1.44,0.48,2.81,0.961,4.32
			C46.196,57.318,46.056,59.768,47.796,60.568z"/>
		<path d="M54.036,49.288c6.41,4.11,2.061,12.42-6.24,11.28c-1.739-0.8-1.6-3.25-2.159-5.04c-0.48-1.51-1.57-2.88-0.961-4.32
			C47.016,49.268,50.486,48.898,54.036,49.288z M48.756,57.688c3.49,0.44,6.28-1.33,6-3.6c-0.31-2.59-5.01-2.65-7.439-1.44
			C47.606,54.518,48.206,56.078,48.756,57.688z"/>
	</g>
</g>
</svg>
